<svg viewBox="0 0 52 50" xmlns="http://www.w3.org/2000/svg" fill="#fff">
<path d="M25.8266 49.6198C24.0151 49.6198 22.2047 49.2547 20.528 48.5255L12.5108 45.0403C9.61041 43.7787 6.54367 42.9796 3.39596 42.665L0.76317 42.4017C0.329705 42.3585 0 41.9939 0 41.5585V33.2999C0 33.1166 0.0596378 32.9382 0.169701 32.7918C0.366554 32.5285 5.08521 26.364 12.2931 27.9679C16.3471 28.8687 19.6111 30.5546 21.6354 31.8104C23.105 32.7219 24.8278 33.2034 26.6174 33.2034H34.6345C36.0164 33.2034 37.231 33.9346 37.9103 35.0313L44.8151 27.0762C46.1538 25.2885 48.344 24.1937 50.6369 24.1937H51.1528C51.4393 24.1937 51.706 24.3382 51.8621 24.5777C52.0187 24.8173 52.0434 25.1203 51.9285 25.3821L45.6835 39.575C44.3182 42.679 41.538 45.0238 38.2472 45.8466L37.1485 46.121L30.7571 48.6777C29.1842 49.3066 27.5051 49.6198 25.8266 49.6198ZM1.69507 40.7915L3.56469 40.9786C6.88744 41.3108 10.1249 42.1549 13.1872 43.4863L21.2039 46.9715C24.0229 48.1972 27.2739 48.2452 30.1282 47.1034L36.572 44.5259C36.6079 44.5118 36.6443 44.5002 36.6816 44.4909L37.8361 44.202C40.6226 43.5052 42.9766 41.5202 44.132 38.8923L49.8281 25.947C48.3697 26.1618 47.0276 26.9477 46.1335 28.1395L38.4843 36.9552C38.4853 36.9882 38.4858 37.0207 38.4858 37.0542C38.4858 39.1774 36.7582 40.9049 34.635 40.9049H23.4493C21.9952 40.9049 20.5581 41.1381 19.1786 41.5978L18.8674 40.8075L18.6041 40.0021L18.6472 39.9881C20.1954 39.4722 21.8124 39.2099 23.4493 39.2099H34.635C35.8234 39.2099 36.7912 38.2426 36.7912 37.0537C36.7912 35.8648 35.8239 34.8975 34.635 34.8975H26.6179C24.5121 34.8975 22.4805 34.3278 20.7428 33.2499C18.8305 32.0635 15.7478 30.4717 11.9266 29.6217C6.46804 28.411 2.54018 32.6002 1.69556 33.5995V40.7915H1.69507Z"></path>
<path d="M33.3729 24.0024C32.0696 24.0024 30.6083 23.6 28.9995 22.7956C28.8046 22.6977 28.6543 22.528 28.5806 22.3229C28.5151 22.1391 27.0009 17.7836 29.4073 14.5627C31.1561 12.2213 34.4445 11.1667 39.1864 11.431C39.6189 11.4547 39.9636 11.8014 39.985 12.2349C40.0019 12.5714 40.3515 20.5139 36.3015 23.1583C35.4404 23.7212 34.4619 24.0024 33.3729 24.0024ZM30.0802 21.4356C32.3062 22.4795 34.0857 22.5818 35.3754 21.7396C37.7769 20.1711 38.2962 15.515 38.3088 13.0916C34.5933 13.001 32.0638 13.8383 30.7649 15.5765C29.2191 17.6464 29.8199 20.4935 30.0802 21.4356Z"></path>
<path d="M20.4136 12.8995C18.9111 12.8995 17.1777 12.5775 15.6649 11.4696C13.099 9.58932 11.9199 6.0096 12.1594 0.83032C12.1797 0.39734 12.523 0.04921 12.956 0.0235124C13.3226 0.00266342 21.9986 -0.460378 24.918 3.92179C26.2775 5.9616 26.166 8.63317 24.5878 11.8638C24.4918 12.0602 24.324 12.2119 24.1189 12.2871C24.005 12.3293 22.4142 12.8995 20.4136 12.8995ZM23.8266 11.4919H23.8348H23.8266ZM13.8273 1.69095C13.7541 5.83941 14.7078 8.66712 16.6662 10.1023C19.0109 11.8202 22.2125 11.09 23.219 10.7966C24.3706 8.29765 24.468 6.30245 23.508 4.86145C21.7237 2.18308 16.4911 1.65943 13.8273 1.69095Z"></path>
<path d="M27.0314 34.5999C27.0048 34.5999 26.9781 34.5985 26.9509 34.5961C26.4995 34.5534 26.1616 34.1631 26.1844 33.7097C26.2343 32.7129 26.3196 31.7674 26.4355 30.8714C26.788 24.8746 26.6062 10.9097 17.7769 7.04629C17.3483 6.85865 17.1524 6.35924 17.34 5.93014C17.5272 5.50201 18.0281 5.30661 18.4562 5.49377C23.6592 7.77019 26.9325 13.4377 27.9202 21.8835C28.0089 22.6404 28.0753 23.3866 28.1248 24.1134C30.4502 18.2374 34.0076 16.1612 34.2195 16.0424C34.6268 15.8121 35.1436 15.9585 35.3734 16.3653C35.6018 16.7726 35.4583 17.288 35.0525 17.5178C34.9628 17.5702 29.5076 20.844 28.1384 30.9397C28.0341 32.6668 27.8838 33.7679 27.8697 33.8688C27.8111 34.2916 27.4499 34.5999 27.0314 34.5999Z"></path>
</svg>