<svg viewBox="0 0 65 46" xmlns="http://www.w3.org/2000/svg" fill="#fff">
<path d="M45.9611 45.8831H19.0395C14.8762 45.8831 11.4894 42.5189 11.4894 38.3845V33.3887C11.4894 22.0639 0.744661 16.9596 0.636686 16.9094C0.182186 16.6991 -0.0714292 16.2088 0.0177129 15.7166C0.108111 15.2244 0.519295 14.8553 1.01774 14.8195C11.0349 14.092 16.5241 21.6791 19.2756 27.7778C17.273 15.2891 7.88106 8.92485 7.76806 8.85078C7.38324 8.59528 7.19868 8.12697 7.30666 7.67812C7.41526 7.22864 7.7938 6.89593 8.25332 6.84508C18.0671 5.75842 23.4332 16.6413 25.9656 24.2492C25.8689 11.7372 22.6849 1.5499 22.646 1.43C22.5079 0.993707 22.6548 0.517236 23.0145 0.234743C23.3736 -0.048378 23.8714 -0.0785105 24.2631 0.161294C28.9469 3.02012 31.3167 9.33666 32.5 15.554C33.6833 9.33666 36.0531 3.02012 40.7369 0.161294C41.1292 -0.0766273 41.6264 -0.0477502 41.9855 0.234743C42.3452 0.517236 42.4927 0.993707 42.354 1.43C42.3157 1.55053 39.1317 11.7379 39.0344 24.2504C41.5668 16.6419 46.9511 5.77098 56.7467 6.84508C57.2062 6.89593 57.5835 7.22864 57.6927 7.67686C57.8013 8.12508 57.6174 8.59465 57.2332 8.85015C57.1214 8.92422 47.7439 15.3142 45.7301 27.7671C48.4841 21.6703 53.9651 14.0982 63.9829 14.8195C64.4807 14.8559 64.8913 15.2244 64.9817 15.7154C65.0727 16.2069 64.8184 16.6972 64.3658 16.9087C64.2572 16.9596 53.5118 22.101 53.5118 33.3894V38.3845C53.5118 42.5189 50.1244 45.8831 45.9611 45.8831ZM5.32293 17.2854C8.8861 20.0231 13.6828 25.2247 13.6828 33.3887V38.3845C13.6828 41.3092 16.0865 43.6884 19.0395 43.6884H45.9611C48.9141 43.6884 51.3172 41.3092 51.3172 38.3845V33.3887C51.3172 25.2222 56.117 20.0199 59.6808 17.2829C48.5312 19.7123 45.4827 35.3141 45.4501 35.4899C45.3503 36.0291 44.8688 36.4152 44.3164 36.3838C43.7683 36.3568 43.3245 35.9274 43.2787 35.38C42.1374 21.7984 49.3265 13.0185 53.3831 9.20483C43.1268 11.611 39.3646 31.4672 39.3238 31.6869C39.2252 32.2249 38.76 32.594 38.1976 32.5852C37.6514 32.562 37.2051 32.1389 37.1523 31.5946C36.055 20.1693 38.0155 9.64113 39.2943 4.34031C34.657 10.0253 33.758 21.079 33.5967 26.0879C33.5772 26.6798 33.092 27.15 32.5 27.15C31.908 27.15 31.4228 26.6798 31.4033 26.0879C31.242 21.079 30.3436 10.0253 25.7064 4.34031C26.9845 9.64113 28.945 20.1693 27.8477 31.5946C27.7955 32.1389 27.3498 32.562 26.8024 32.5852C26.2381 32.6022 25.7754 32.2255 25.6769 31.6875C25.636 31.4678 21.8626 11.6198 11.6188 9.20672C15.6754 13.0197 22.8626 21.7996 21.722 35.38C21.6755 35.9274 21.2329 36.3555 20.6843 36.3838C20.1469 36.4202 19.651 36.0297 19.5499 35.4905C19.5166 35.3153 16.4494 19.7249 5.32293 17.2854Z"></path>
<path d="M35.792 41.4947H27.1207C26.5149 41.4947 26.0234 41.0038 26.0234 40.398C26.0234 39.7916 26.5149 39.3007 27.1207 39.3007H35.792C36.3978 39.3007 36.8887 39.7916 36.8887 40.398C36.8887 41.0038 36.3978 41.4947 35.792 41.4947Z"></path>
<path d="M21.3767 41.4947H18.2379C17.6321 41.4947 17.1412 41.0038 17.1412 40.398C17.1412 39.7916 17.6321 39.3007 18.2379 39.3007H21.3767C21.9825 39.3007 22.474 39.7916 22.474 40.398C22.474 41.0038 21.9831 41.4947 21.3767 41.4947Z"></path>
</svg>