<svg viewBox="0 0 40 53" xmlns="http://www.w3.org/2000/svg" fill="#fff">
<path d="M37.4356 52.5682H2.2556C1.80083 52.5682 1.41795 52.2245 1.37003 51.7718C-0.456677 34.6717 -0.456677 17.5207 1.37003 0.794309C1.41948 0.342603 1.80083 0 2.2556 0H37.4356C37.8812 0 38.258 0.328328 38.3181 0.769837C40.5604 17.0598 40.5604 34.2256 38.3197 51.7897C38.2631 52.2347 37.8838 52.5682 37.4356 52.5682ZM3.05806 50.7863H36.65C38.7382 33.9243 38.7413 17.4473 36.6571 1.78184H3.05603C1.35677 17.8709 1.35779 34.3475 3.05806 50.7863Z"></path>
<path d="M20.2759 39.195C12.9084 39.195 6.91541 33.2015 6.91541 25.8345C6.91541 18.4675 12.9084 12.474 20.2759 12.474C27.6429 12.474 33.6359 18.467 33.6359 25.834C33.6359 33.2015 27.6429 39.195 20.2759 39.195ZM20.2759 14.2558C13.8909 14.2558 8.69725 19.45 8.69725 25.834C8.69725 32.2185 13.8909 37.4127 20.2759 37.4127C26.6605 37.4127 31.8541 32.2185 31.8541 25.834C31.8541 19.45 26.6605 14.2558 20.2759 14.2558Z"></path>
<path d="M34.0208 7.12791H30.4566C29.9641 7.12791 29.566 6.72923 29.566 6.23674C29.566 5.74475 29.9641 5.34607 30.4566 5.34607H34.0208C34.5133 5.34607 34.9115 5.74475 34.9115 6.23674C34.9115 6.72923 34.5133 7.12791 34.0208 7.12791Z"></path>
<path d="M27.7836 7.12791H2.83629C2.3438 7.12791 1.94511 6.72923 1.94511 6.23674C1.94511 5.74475 2.3438 5.34607 2.83629 5.34607H27.7836C28.2761 5.34607 28.6748 5.74475 28.6748 6.23674C28.6748 6.72923 28.2761 7.12791 27.7836 7.12791Z"></path>
<path d="M34.0208 46.3314H30.4566C29.9641 46.3314 29.566 45.9322 29.566 45.4402C29.566 44.9483 29.9641 44.5491 30.4566 44.5491H34.0208C34.5133 44.5491 34.9115 44.9483 34.9115 45.4402C34.9115 45.9322 34.5133 46.3314 34.0208 46.3314Z"></path>
<path d="M27.7836 46.3314H2.83629C2.3438 46.3314 1.94511 45.9322 1.94511 45.4402C1.94511 44.9483 2.3438 44.5491 2.83629 44.5491H27.7836C28.2761 44.5491 28.6748 44.9483 28.6748 45.4402C28.6748 45.9322 28.2761 46.3314 27.7836 46.3314Z"></path>
<path d="M20.1393 26.2952C18.1938 26.2952 16.6098 24.7122 16.6098 22.7662C16.6098 21.1302 18.9254 17.438 19.3893 16.7146C19.7161 16.2037 20.5619 16.2037 20.8892 16.7146C21.3527 17.438 23.6683 21.1302 23.6683 22.7662C23.6683 24.7122 22.0848 26.2952 20.1393 26.2952ZM20.1393 18.9043C19.2048 20.5066 18.3921 22.1819 18.3921 22.7662C18.3921 23.7293 19.1762 24.5134 20.1393 24.5134C21.1023 24.5134 21.8865 23.7293 21.8865 22.7662C21.8859 22.1809 21.0738 20.5056 20.1393 18.9043Z"></path>
<path d="M19.7651 39.2035C19.4291 39.2035 19.115 39.0128 18.9636 38.7013L15.4249 31.4123C15.2098 30.9698 15.3943 30.4371 15.8374 30.2219C16.2809 30.0073 16.8127 30.1913 17.0278 30.6344L18.8739 34.4366V25.8384C18.8739 25.3464 19.2726 24.9478 19.7651 24.9478C20.2576 24.9478 20.6557 25.3464 20.6557 25.8384V38.3123C20.6557 38.7273 20.3687 39.0873 19.9644 39.1806C19.8981 39.1959 19.8308 39.2035 19.7651 39.2035Z"></path>
<path d="M19.764 39.2035C19.6284 39.2035 19.4903 39.1724 19.3603 39.1061C18.9218 38.8823 18.748 38.346 18.9713 37.9075L22.9163 30.1638C23.1386 29.7254 23.6754 29.5495 24.1149 29.7743C24.5534 29.9981 24.7272 30.5344 24.5034 30.9729L20.5584 38.7166C20.4018 39.0256 20.0888 39.2035 19.764 39.2035Z"></path>
<path d="M15.1012 31.9105C14.8733 31.9105 14.6434 31.8886 14.4155 31.8437C13.4896 31.6622 12.6907 31.132 12.1646 30.3494C11.2525 28.9918 11.1133 24.6368 11.0945 23.7773C11.0883 23.4739 11.2362 23.1879 11.4886 23.0187C11.7399 22.8484 12.0601 22.8208 12.3395 22.9396C13.1276 23.2812 17.1094 25.0534 18.023 26.41C19.1079 28.0257 18.6776 30.223 17.0625 31.3089C16.4741 31.7051 15.7956 31.9105 15.1012 31.9105ZM13.6436 29.3553C13.9036 29.7422 14.2997 30.0053 14.7576 30.0945C15.2164 30.1853 15.6814 30.0899 16.0678 29.8299C16.8682 29.2921 17.0813 28.2041 16.544 27.4042C16.2182 26.9198 14.6087 25.9833 12.939 25.1752C13.0573 27.0269 13.3173 28.8704 13.6436 29.3553Z"></path>
<path d="M25.1769 31.91C24.482 31.91 23.8024 31.7045 23.213 31.3079C22.432 30.7812 21.9012 29.9823 21.7203 29.057C21.5393 28.1317 21.7299 27.1916 22.2561 26.409C23.1692 25.0518 27.1514 23.2817 27.9406 22.9406C28.219 22.8208 28.5392 22.8504 28.7915 23.0196C29.0429 23.1889 29.1907 23.4754 29.1846 23.7783C29.1658 24.6373 29.0255 28.9933 28.113 30.3504C27.5868 31.1325 26.7869 31.6627 25.8611 31.8437C25.6332 31.8881 25.4037 31.91 25.1769 31.91ZM27.3401 25.1757C25.6704 25.9828 24.0598 26.9193 23.7341 27.4036C23.1957 28.2031 23.4088 29.291 24.2087 29.8294C24.5957 30.0894 25.0637 30.1847 25.519 30.0945C25.9773 30.0053 26.3734 29.7427 26.6334 29.3553C26.9597 28.8709 27.2208 27.0269 27.3401 25.1757Z"></path>
</svg>