<svg viewBox="0 0 60 40" xmlns="http://www.w3.org/2000/svg" fill="#fff">
<path d="M45.3531 36.2924H22.1728C21.6157 36.2924 21.1647 35.8414 21.1647 35.2849C21.1647 34.7278 21.6157 34.2769 22.1728 34.2769H45.3531C45.9102 34.2769 46.3612 34.7278 46.3612 35.2849C46.3612 35.8414 45.9102 36.2924 45.3531 36.2924Z"></path>
<path d="M44.3456 26.2038H23.1803C22.6232 26.2038 22.1728 25.7529 22.1728 25.1958V19.5269C22.1728 18.9704 22.6232 18.5188 23.1803 18.5188C23.7374 18.5188 24.1883 18.9704 24.1883 19.5269V24.1883H43.3375V19.5955C43.3375 19.039 43.7885 18.588 44.3456 18.588C44.9027 18.588 45.3531 19.039 45.3531 19.5955V25.1958C45.3531 25.7529 44.9027 26.2038 44.3456 26.2038Z"></path>
<path d="M51.8029 39.7718C47.2827 39.7718 43.6063 36.0948 43.6063 31.5752C43.6063 27.0551 47.2833 23.3781 51.8029 23.3781C56.323 23.3781 60 27.0551 60 31.5752C60 36.0948 56.3236 39.7718 51.8029 39.7718ZM51.8029 25.393C48.3946 25.393 45.6218 28.1664 45.6218 31.5746C45.6218 34.9829 48.3946 37.7562 51.8029 37.7562C55.2111 37.7562 57.9845 34.9829 57.9845 31.5746C57.9845 28.1664 55.2111 25.393 51.8029 25.393Z"></path>
<path d="M51.8029 36.0342C49.3438 36.0342 47.3444 34.0337 47.3444 31.5752C47.3444 29.1162 49.3444 27.1162 51.8029 27.1162C54.2613 27.1162 56.2613 29.1168 56.2613 31.5752C56.2613 34.0331 54.2613 36.0342 51.8029 36.0342ZM51.8029 29.1318C50.4551 29.1318 49.36 30.2281 49.36 31.5746C49.36 32.9224 50.4557 34.0181 51.8029 34.0181C53.15 34.0181 54.2457 32.9218 54.2457 31.5746C54.2457 30.2281 53.15 29.1318 51.8029 29.1318Z"></path>
<path d="M15.4347 39.7718C10.914 39.7718 7.23695 36.0948 7.23695 31.5752C7.23695 27.0551 10.914 23.3781 15.4347 23.3781C19.9542 23.3781 23.6313 27.0551 23.6313 31.5752C23.6313 36.0948 19.9542 39.7718 15.4347 39.7718ZM15.4347 25.393C12.0264 25.393 9.25251 28.1664 9.25251 31.5746C9.25251 34.9829 12.0264 37.7562 15.4347 37.7562C18.843 37.7562 21.6151 34.9829 21.6151 31.5746C21.6151 28.1664 18.843 25.393 15.4347 25.393Z"></path>
<path d="M47.3686 20.1567H20.0857C19.5286 20.1567 19.0782 19.7057 19.0782 19.1492C19.0782 14.1475 23.1468 10.0784 28.1485 10.0784H39.3058C44.3075 10.0784 48.3767 14.1475 48.3767 19.1492C48.3767 19.7057 47.9257 20.1567 47.3686 20.1567ZM21.1659 18.1411H46.2891C45.7994 14.7265 42.8543 12.0939 39.3058 12.0939H28.1491C24.6007 12.0939 21.6561 14.7265 21.1659 18.1411Z"></path>
<path d="M26.7425 35.7407C26.4029 35.7407 26.0718 35.5695 25.8821 35.2592L5.51725 2.01555H1.00806C0.450976 2.01555 0 1.564 0 1.00749C0 0.450976 0.450976 0 1.00806 0H6.08241C6.43304 0 6.75887 0.182236 6.94169 0.480964L27.6007 34.2061C27.8919 34.6813 27.7425 35.3019 27.2679 35.5919C27.1035 35.6929 26.9213 35.7407 26.7425 35.7407Z"></path>
<path d="M40.3848 12.0938H34.2667C33.7096 12.0938 33.2592 11.6429 33.2592 11.0864V8.06275C33.2592 7.50624 33.7096 7.05469 34.2667 7.05469H40.3848C40.9419 7.05469 41.3923 7.50624 41.3923 8.06275V11.0864C41.3923 11.6429 40.9419 12.0938 40.3848 12.0938ZM35.2747 10.0783H39.3768V9.07024H35.2747V10.0783Z"></path>
<path d="M15.52 36.0342C13.0616 36.0342 11.0616 34.0337 11.0616 31.5752C11.0616 29.1162 13.0616 27.1162 15.52 27.1162C17.9785 27.1162 19.9785 29.1168 19.9785 31.5752C19.9785 34.0331 17.9785 36.0342 15.52 36.0342ZM15.52 29.1318C14.1729 29.1318 13.0772 30.2281 13.0772 31.5746C13.0772 32.9224 14.1729 34.0181 15.52 34.0181C16.8672 34.0181 17.9629 32.9218 17.9629 31.5746C17.9629 30.2281 16.8678 29.1318 15.52 29.1318Z"></path>
</svg>