<svg viewBox="0 0 55 54" xmlns="http://www.w3.org/2000/svg" fill="#fff">
<path d="M54 20.0001H47.786L50.7695 17.0165C50.957 16.8289 51.0625 16.5746 51.0625 16.3094C51.0625 16.0441 50.957 15.7899 50.7695 15.6022L37.4599 2.29284C37.0694 1.90247 36.436 1.90247 36.0458 2.29284L33.9601 4.37855C33.9504 4.37243 33.9425 4.36448 33.9325 4.35868L26.6155 0.134095C26.3858 0.00132115 26.1129 -0.0345577 25.8567 0.0340848C25.6006 0.102727 25.3821 0.270306 25.2495 0.500081L14.134 19.7527C14.0883 19.832 14.0588 19.9154 14.0367 19.9999H0.99999C0.447734 19.9999 0 20.4477 0 20.9999V53C0 53.5522 0.447734 53.9999 0.99999 53.9999H54C54.5523 53.9999 55 53.5522 55 53V41.9999V30.0001V21C55 20.4478 54.5523 20.0001 54 20.0001ZM36.7529 4.41421L48.6483 16.3094L44.9576 20.0001H21.1672L36.7529 4.41421ZM26.4814 2.36611L32.4987 5.84013L18.3387 20.0001H16.3005L26.4814 2.36611ZM53 41H39.9947C38.3436 41 37.0001 39.656 37.0001 38.0041V33.9957C37.0001 32.3439 38.3436 30.9998 39.9947 30.9998H53V41ZM53 29H39.9947C37.2405 29 35.0001 31.2411 35.0001 33.9958V38.0042C35.0001 40.7589 37.2406 43 39.9947 43H53V52.0001H1.99998V22H44.9697C45.0795 22.0397 45.194 22.0624 45.3093 22.0624C45.4245 22.0624 45.5391 22.0398 45.649 22H53V29Z"></path>
<path d="M41 37.9998C42.1046 37.9998 43 37.1044 43 35.9999C43 34.8953 42.1046 33.9999 41 33.9999C39.8955 33.9999 39 34.8953 39 35.9999C39 37.1044 39.8955 37.9998 41 37.9998Z"></path>
</svg>