<svg viewBox="0 0 40 45" xmlns="http://www.w3.org/2000/svg" fill="#2BA84A">
<path d="M20.1031 19.1746H20.7906C21.1344 19.1746 21.375 18.8996 21.375 18.5902C21.375 18.2808 21.1 18.0058 20.7906 18.0058L20.1375 18.0402L20.3781 16.4246C20.4125 16.0808 20.2062 15.8058 19.8625 15.7371C19.5531 15.7027 19.2437 15.9089 19.175 16.2183L18.9344 17.8339C18.7969 18.5215 19.3469 19.1746 20.1031 19.1746Z"/>
<path d="M23.8156 16.1496C24.613 16.1496 25.2594 15.5032 25.2594 14.7058C25.2594 13.9085 24.613 13.2621 23.8156 13.2621C23.0183 13.2621 22.3719 13.9085 22.3719 14.7058C22.3719 15.5032 23.0183 16.1496 23.8156 16.1496Z"/>
<path d="M17.25 20.6871C17.0094 20.8933 16.9407 21.2715 17.1813 21.5465C17.9032 22.3027 18.9 22.7496 19.9657 22.7152C21.0313 22.7496 22.0282 22.3371 22.75 21.5465C22.9563 21.3058 22.9219 20.9277 22.6813 20.6871C22.4063 20.4808 22.0282 20.5152 21.8219 20.7558C21.3407 21.2371 20.6532 21.5121 19.9657 21.4777C19.2782 21.5121 18.5907 21.2371 18.1094 20.7558C17.9032 20.5152 17.525 20.4808 17.25 20.6871Z"/>
<path d="M16.1844 16.1496C16.975 16.1496 17.6281 15.4965 17.6281 14.7058C17.6281 13.9152 16.975 13.2621 16.1844 13.2621C15.3938 13.2621 14.7406 13.9152 14.7406 14.7058C14.775 15.4965 15.3938 16.1496 16.1844 16.1496Z"/>
<path d="M33.6469 30.9996C31.55 30.484 30.3469 30.6215 27.5969 30.3121C26.4969 30.209 25.6031 29.7621 25.4656 28.6621L25.1219 26.0496C26.1875 25.1902 27.0469 24.0558 27.5625 22.7496C27.9063 21.7871 28.1813 20.7902 28.3531 19.7933H29.7281V23.884L27.9406 24.709C27.6313 24.8465 27.4938 25.1902 27.6313 25.4996C27.7688 25.809 28.1125 25.9465 28.4219 25.809L30.5531 24.8121C30.7594 24.709 30.8969 24.5027 30.8969 24.2621V19.7933H31.0688C32.3406 19.7933 33.3719 18.7621 33.3719 17.4902V15.1527C33.3719 13.8808 32.3406 12.8496 31.0688 12.8496H29.2125V10.4777C29.2469 5.28709 25.0875 0.921462 19.8281 0.990212C14.8094 1.12771 10.7531 5.21834 10.7531 10.2715V12.8152H8.89689C7.62501 12.8152 6.59376 13.8465 6.59376 15.1183V17.4558C6.59376 18.7277 7.62501 19.759 8.89689 19.759H11.6469C11.8188 20.7558 12.0594 21.7527 12.4375 22.7152C12.9531 23.9871 13.8125 25.1215 14.8781 26.0152C14.8781 26.0152 14.6375 27.9402 14.5344 28.5933C14.4656 29.0058 14.225 29.4183 13.8813 29.7277C13.5031 30.1058 12.9531 30.209 12.4031 30.2777C10.9938 30.4496 9.06876 30.3121 6.35314 30.9652C2.74376 31.9965 0.200012 35.2965 0.200012 39.0433V44.3715C0.200012 44.7152 0.475012 44.9558 0.818762 44.9558H39.2156C39.5594 44.9558 39.8 44.6808 39.8 44.3715V39.0433C39.8 35.2965 37.2563 31.9965 33.6469 30.9996ZM27.6656 31.5152L25.5688 36.809L21.1 34.4371L25.6719 30.9308C26.3938 31.309 26.9781 31.4465 27.6656 31.5152ZM32.2375 15.1183V17.4558C32.2375 18.0746 31.7219 18.5558 31.1375 18.5558H28.6281L29.075 16.459C29.2125 15.8746 29.2469 15.2902 29.2469 14.7058V13.984H31.1031C31.7219 14.0183 32.2375 14.534 32.2375 15.1183ZM19.8625 2.19334C24.4344 2.12459 28.0438 5.94021 28.0781 10.4433V12.8152H27.5625C27.0469 12.8152 26.6 12.4715 26.4969 11.9902L25.2594 7.31521C25.1219 6.86834 24.5719 6.73084 24.2625 7.04021C24.2625 7.04021 23.025 8.24334 20.0344 8.24334C17.0438 8.24334 15.8406 7.07459 15.8406 7.04021C15.5313 6.69646 14.9813 6.83396 14.8438 7.28084L13.3313 12.059C13.1938 12.5058 12.7469 12.8496 12.2656 12.8496H12.025V10.2715C11.9563 5.87146 15.4625 2.29646 19.8625 2.19334ZM7.76251 17.4558V15.1183C7.76251 14.4996 8.27814 14.0183 8.86251 14.0183H10.7188V14.7402C10.7188 15.3246 10.7875 15.909 10.8906 16.4933L11.3375 18.5902H8.82814C8.27814 18.5902 7.76251 18.0746 7.76251 17.4558ZM13.5375 22.3027C13.0563 20.9621 13.2281 21.3058 12.0938 16.2527C11.9906 15.7715 11.9219 15.2558 11.9219 14.7746V14.0527H12.1625C13.1594 14.0527 14.0531 13.3996 14.3625 12.4371L15.6344 8.44959C16.3906 8.89646 17.8 9.44646 19.9656 9.44646C22.0969 9.44646 23.4719 8.89646 24.2281 8.44959L25.225 12.2996C25.5 13.3308 26.4281 14.0183 27.4594 14.0183H27.975V14.7402C27.975 15.2558 27.9063 15.7371 27.8031 16.2183C26.8063 20.6871 26.9094 20.7902 26.3594 22.2683C24.1938 27.9402 15.9438 28.1808 13.5375 22.3027ZM20 27.8371C21.4094 27.8371 22.7844 27.4933 24.0219 26.7715L24.2625 28.7652C24.3313 29.2808 24.6063 29.8652 24.7781 30.1058L20 33.784C13.9156 29.1433 15.6688 30.4496 15.1875 30.1058C15.4969 29.6246 15.7031 29.0746 15.7375 28.7996L15.9781 26.8058C17.2156 27.4933 18.5906 27.8371 20 27.8371ZM14.3281 30.9652L18.9 34.4715L14.4313 36.8433L12.3344 31.5496C12.5406 31.4808 13.4 31.5496 14.3281 30.9652ZM38.5969 43.7871H1.40314V39.0433C1.40314 35.8121 3.56876 32.9933 6.66251 32.134C8.65626 31.6527 9.82501 31.6871 11.0625 31.584L13.5375 37.8402C13.675 38.184 14.0531 38.3215 14.3625 38.1496L19.3813 35.5027V37.909C19.3813 38.2527 19.6563 38.4933 19.9656 38.4933C20.3094 38.4933 20.55 38.2183 20.55 37.909V35.5027L25.5688 38.1496C25.8781 38.3215 26.2906 38.184 26.3938 37.8402L28.9375 31.6183C30.3813 31.7558 31.9625 31.7902 33.3375 32.134C36.4313 32.9933 38.5969 35.8121 38.5969 39.0433V43.7871Z"/>
<path d="M20 39.6965C19.6563 39.6965 19.4156 39.9715 19.4156 40.2808V41.8965C19.4156 42.2402 19.6906 42.4808 20 42.4808C20.3438 42.4808 20.5844 42.2058 20.5844 41.8965V40.2808C20.6188 39.9715 20.3438 39.6965 20 39.6965Z"/>
</svg>