<svg viewBox="0 0 50 48" xmlns="http://www.w3.org/2000/svg" fill="#2BA84A">
<path d="M49.8793 23.6027L45.5469 17.3129L45.3555 9.67849C45.3521 9.53997 45.3066 9.40575 45.2251 9.29369C45.1436 9.18163 45.03 9.09703 44.8992 9.05115L37.6953 6.51365L33.0594 0.443337C32.975 0.333161 32.8592 0.251201 32.7272 0.208303C32.5952 0.165405 32.4533 0.163592 32.3203 0.203103L25 2.3906L17.6797 0.203103C17.5467 0.163592 17.4048 0.165405 17.2728 0.208303C17.1408 0.251201 17.025 0.333161 16.9406 0.443337L12.3047 6.51365L5.1 9.05076C4.96925 9.09664 4.85557 9.18124 4.77407 9.2933C4.69257 9.40536 4.64712 9.53958 4.64375 9.6781L4.45313 17.3133L0.120705 23.6027C0.042107 23.7167 1.52588e-05 23.8518 1.52588e-05 23.9902C1.52588e-05 24.1286 0.042107 24.2638 0.120705 24.3777L4.45313 30.6676L4.64492 38.3019C4.64829 38.4405 4.69374 38.5747 4.77524 38.6867C4.85674 38.7988 4.97043 38.8834 5.10117 38.9293L12.3055 41.4683L16.9418 47.5386C17.0261 47.649 17.1419 47.731 17.2739 47.7739C17.4059 47.8168 17.5478 47.8186 17.6809 47.7789L25 45.5918L32.3203 47.7793C32.4533 47.819 32.5953 47.8172 32.7273 47.7743C32.8593 47.7314 32.9751 47.6493 33.0594 47.539L37.6953 41.4668L44.8996 38.9297C45.0303 38.8838 45.144 38.7992 45.2255 38.6871C45.307 38.5751 45.3525 38.4408 45.3559 38.3023L45.5473 30.6672L49.8789 24.3781C49.9575 24.2641 49.9996 24.1289 49.9997 23.9905C49.9997 23.852 49.9578 23.7168 49.8793 23.6027ZM44.3066 30.059C44.2313 30.168 44.1894 30.2967 44.1863 30.4293L44.0016 37.7969L37.0484 40.2449C36.9229 40.2892 36.813 40.369 36.732 40.4746L32.2594 46.334L25.1957 44.2246C25.0682 44.1867 24.9325 44.1867 24.8051 44.2246L17.7414 46.334L13.2672 40.4746C13.1862 40.369 13.0763 40.2892 12.9508 40.2449L5.99766 37.7965L5.81328 30.4297C5.8101 30.2971 5.76829 30.1684 5.69297 30.0594L1.51367 23.9902L5.69336 17.9215C5.76874 17.8124 5.81056 17.6837 5.81367 17.5511L5.99805 10.1836L12.9512 7.73553C13.0767 7.69122 13.1866 7.61142 13.2676 7.50584L17.7406 1.64842L24.8043 3.75779C24.9317 3.79592 25.0675 3.79592 25.1949 3.75779L32.2586 1.64842L36.732 7.50779C36.813 7.61338 36.9229 7.69317 37.0484 7.73748L44.0016 10.1859L44.1863 17.5527C44.1895 17.6852 44.2313 17.8139 44.3066 17.923L48.4863 23.9902L44.3066 30.059Z"/>
<path d="M25 7.21561C21.6823 7.21561 18.4391 8.19942 15.6805 10.0426C12.922 11.8859 10.7719 14.5057 9.50229 17.5709C8.23266 20.636 7.90046 24.0088 8.54771 27.2628C9.19497 30.5167 10.7926 33.5057 13.1386 35.8517C15.4845 38.1976 18.4735 39.7953 21.7274 40.4425C24.9814 41.0898 28.3542 40.7576 31.4194 39.4879C34.4845 38.2183 37.1044 36.0683 38.9476 33.3097C40.7908 30.5511 41.7746 27.3079 41.7746 23.9902C41.7696 19.5428 40.0007 15.279 36.8559 12.1343C33.7112 8.98948 29.4474 7.22057 25 7.21561ZM25 39.3976C21.9527 39.3976 18.9738 38.494 16.4401 36.801C13.9064 35.108 11.9316 32.7017 10.7654 29.8864C9.59925 27.071 9.29413 23.9731 9.88863 20.9844C10.4831 17.9956 11.9505 15.2503 14.1053 13.0955C16.2601 10.9408 19.0054 9.47334 21.9942 8.87884C24.9829 8.28435 28.0808 8.58946 30.8962 9.75561C33.7115 10.9218 36.1178 12.8966 37.8108 15.4303C39.5038 17.964 40.4074 20.9429 40.4074 23.9902C40.4028 28.0751 38.778 31.9913 35.8895 34.8798C33.0011 37.7682 29.0849 39.393 25 39.3976Z"/>
<path d="M25 10.3406C22.3004 10.3406 19.6614 11.1411 17.4167 12.641C15.172 14.1408 13.4225 16.2726 12.3894 18.7667C11.3563 21.2609 11.086 24.0054 11.6127 26.6531C12.1393 29.3009 13.4393 31.733 15.3483 33.642C17.2572 35.5509 19.6893 36.8509 22.3371 37.3776C24.9849 37.9042 27.7293 37.6339 30.2235 36.6008C32.7176 35.5677 34.8494 33.8182 36.3492 31.5735C37.8491 29.3289 38.6496 26.6899 38.6496 23.9902C38.6456 20.3714 37.2062 16.9019 34.6473 14.3429C32.0884 11.784 28.6189 10.3446 25 10.3406ZM25 36.2726C22.5708 36.2726 20.1961 35.5523 18.1763 34.2027C16.1564 32.8531 14.5822 30.9348 13.6525 28.6905C12.7229 26.4462 12.4797 23.9766 12.9536 21.594C13.4275 19.2115 14.5973 17.023 16.315 15.3052C18.0327 13.5875 20.2213 12.4177 22.6038 11.9438C24.9864 11.4699 27.456 11.7131 29.7003 12.6427C31.9446 13.5724 33.8629 15.1466 35.2125 17.1665C36.5621 19.1863 37.2824 21.561 37.2824 23.9902C37.2788 27.2466 35.9836 30.3686 33.681 32.6712C31.3784 34.9738 28.2564 36.269 25 36.2726Z"/>
<path d="M31.0277 17.0785L23.6449 24.4613L20.1992 21.016C20.1358 20.9525 20.0604 20.9021 19.9775 20.8677C19.8945 20.8333 19.8056 20.8156 19.7158 20.8156C19.626 20.8156 19.5371 20.8333 19.4542 20.8677C19.3712 20.9021 19.2959 20.9525 19.2324 21.016L16.4707 23.7777C16.4072 23.8412 16.3568 23.9165 16.3224 23.9995C16.288 24.0824 16.2703 24.1713 16.2703 24.2611C16.2703 24.3509 16.288 24.4398 16.3224 24.5228C16.3568 24.6057 16.4072 24.6811 16.4707 24.7445L23.1617 31.4359C23.29 31.5639 23.4639 31.6358 23.6451 31.6358C23.8264 31.6358 24.0002 31.5639 24.1285 31.4359L34.7563 20.807C34.8844 20.6788 34.9563 20.5049 34.9563 20.3236C34.9563 20.1423 34.8844 19.9685 34.7563 19.8402L31.9941 17.0785C31.9307 17.015 31.8554 16.9646 31.7725 16.9302C31.6896 16.8958 31.6007 16.8781 31.5109 16.8781C31.4212 16.8781 31.3323 16.8958 31.2494 16.9302C31.1665 16.9646 31.0912 17.015 31.0277 17.0785ZM23.6449 29.9851L17.9207 24.2601L19.7176 22.4633L23.1633 25.9086C23.2267 25.9721 23.3021 26.0225 23.385 26.0569C23.468 26.0913 23.5569 26.109 23.6467 26.109C23.7365 26.109 23.8254 26.0913 23.9083 26.0569C23.9913 26.0225 24.0666 25.9721 24.1301 25.9086L31.5129 18.5258L33.3098 20.3207L23.6449 29.9851Z"/>
</svg>