<svg viewBox="0 0 50 50" xmlns="http://www.w3.org/2000/svg" fill="#2BA84A">
<path d="M39.2187 20.1465C39.2187 12.2949 32.8516 5.92773 25 5.92773C17.1484 5.92773 10.7812 12.2949 10.7812 20.1465C10.7812 27.998 17.1484 34.3652 25 34.3652C32.8516 34.3652 39.2187 27.998 39.2187 20.1465ZM25 32.998C17.8906 32.998 12.1484 27.2559 12.1484 20.1465C12.1484 13.0371 17.8906 7.29492 25 7.29492C32.1094 7.29492 37.8516 13.0371 37.8516 20.1465C37.8516 27.2559 32.1094 32.998 25 32.998Z"/>
<path d="M49.8828 43.0371L42.2656 29.873L42.3828 25.8105L46.0156 20.5371C46.1719 20.3027 46.1719 19.9902 46.0156 19.7559L42.3828 14.4824L42.2266 8.07617C42.2266 7.80273 42.0313 7.5293 41.7578 7.45117L35.7422 5.3418L31.875 0.263672C31.7188 0.0292969 31.4063 -0.0488281 31.1328 0.0292969L25 1.86523L18.8672 0.0292969C18.5938 -0.0488281 18.3203 0.0292969 18.125 0.263672L14.2578 5.3418L8.24219 7.45117C7.96875 7.5293 7.8125 7.80273 7.77344 8.07617L7.61719 14.4824L3.98438 19.7559C3.82813 19.9902 3.82813 20.3027 3.98438 20.5371L7.61719 25.8105L7.73438 29.873L0.117189 43.0371C-0.156248 43.5059 0.195314 44.0918 0.742189 44.0527C1.40625 44.0137 -1.71875 44.209 7.38281 43.6621L10.3516 49.5996C10.5859 50.0684 11.2891 50.1074 11.5625 49.6387L17.5781 39.248L18.1641 40.0293C18.3203 40.2637 18.6328 40.3418 18.9063 40.2637L25 38.4277L31.1328 40.2637C31.4063 40.3418 31.6797 40.2637 31.875 40.0293L32.4609 39.248L38.4766 49.6387C38.75 50.1074 39.4531 50.1074 39.6875 49.5996L42.6563 43.6621C42.8125 43.6621 49.0625 44.0527 49.2969 44.0527C49.8047 44.0918 50.1563 43.5059 49.8828 43.0371ZM42.2656 42.2559C41.9922 42.2559 41.7188 42.373 41.6016 42.6465L41.1328 43.584L36.0547 34.7949C36.0938 34.7949 38.6328 33.8965 38.4766 33.9355L43.3203 42.2949L42.2656 42.2559ZM7.8125 32.4121C7.89063 32.6074 8.04688 32.7246 8.24219 32.8027L10.1953 33.5059L5.03906 42.4121L1.91406 42.6074L7.8125 32.4121ZM13.9453 34.834L8.86719 43.623L8.39844 42.6855C8.28125 42.4512 8.08594 42.2949 7.73438 42.2949L6.67969 42.373L11.5234 33.9746L13.9453 34.834ZM11.0156 47.8418L9.60938 45.0684L14.9219 35.8496L16.6406 38.0762L11.0156 47.8418ZM31.0547 38.8184L25.1953 37.0605C25.0781 37.0215 24.9219 37.0215 24.8047 37.0605L18.9453 38.8184L15.2344 33.9355C15.1563 33.8184 15.0391 33.7402 14.9219 33.7012L9.14063 31.6699L8.98438 25.5762C8.98438 25.459 8.94531 25.3027 8.86719 25.2246L5.39063 20.1855L8.86719 15.1465C8.94531 15.0293 8.98438 14.9121 8.98438 14.7949L9.14063 8.66211L14.9219 6.63086C15.0391 6.5918 15.1563 6.51367 15.2344 6.39648L18.9453 1.51367L24.8047 3.27148C24.9219 3.31055 25.0781 3.31055 25.1953 3.27148L31.0547 1.51367L34.7656 6.35742C34.8438 6.47461 34.9609 6.55273 35.0781 6.5918L40.8594 8.62305L41.0156 14.7559C41.0156 14.873 41.0547 15.0293 41.1328 15.1074L44.6094 20.1465L41.1328 25.1855C41.0547 25.3027 41.0156 25.4199 41.0156 25.5371C40.9766 26.5527 40.9766 26.709 40.8594 31.6699C40.8594 31.6699 34.8438 33.7793 35.0781 33.7012C34.9609 33.7402 34.8438 33.8184 34.7656 33.9355C34.6094 34.1699 31.0547 38.8184 31.0547 38.8184ZM38.9844 47.8418L33.3203 38.0762C33.3594 38.0371 35.1563 35.6934 35.0391 35.8496L40.3516 45.0684L38.9844 47.8418ZM44.9609 42.4121L39.8047 33.5059L41.7578 32.8027C41.9531 32.7246 42.1094 32.5684 42.1875 32.4121L48.0859 42.6074L44.9609 42.4121Z"/>
<path d="M31.3672 17.959H29.2578L29.7266 14.7949C29.8438 14.0137 29.4922 13.1934 28.8281 12.7637L27.8516 12.1387C27.5 11.9043 26.9922 12.0606 26.8359 12.4512L26.0156 14.5996C25.3516 16.2793 23.9062 17.5293 22.1094 17.9199H21.4844V16.8262C21.4844 16.4356 21.1719 16.1621 20.8203 16.1621H17.7344C17.3438 16.1621 17.0703 16.4746 17.0703 16.8262V27.5293C17.0703 27.9199 17.3828 28.1934 17.7344 28.1934H20.8203C21.2109 28.1934 21.4844 27.8809 21.4844 27.5293V26.4356H21.8359C22.1484 26.4356 22.4219 26.5918 22.6172 26.8262C23.0469 27.4512 23.75 27.8027 24.4922 27.8027H30.4297C31.3281 27.8027 32.0703 27.0606 32.0703 26.1621C32.0703 25.8887 31.9922 25.6152 31.875 25.3809C32.1094 25.1465 32.2656 24.834 32.3047 24.4824L32.3438 24.0527C32.3828 23.7012 32.3438 23.3496 32.1484 23.0762C32.3828 22.8418 32.5391 22.5293 32.5781 22.1777L32.6172 21.7481C32.6563 21.3965 32.6172 21.0449 32.4219 20.7715C33.4766 19.7949 32.8516 17.959 31.3672 17.959ZM20.1172 26.8652H18.3984V17.5293H20.1172V26.8652ZM31.6016 19.6387V19.7168C31.6016 19.834 31.4844 19.9512 31.3281 19.9512H30.7031C30.3125 19.9512 30.0391 20.2637 30.0391 20.6152C30.0391 20.9668 30.3516 21.2793 30.7031 21.2793H31.0547C31.2109 21.2793 31.3281 21.4356 31.3281 21.5918L31.2891 22.0215C31.2891 22.1387 31.1719 22.2559 31.0156 22.2559H30.5078C30.1172 22.2559 29.8438 22.5684 29.8438 22.9199C29.8438 23.3106 30.1563 23.584 30.5078 23.584H30.7422C30.8984 23.584 31.0156 23.7402 31.0156 23.8965L30.9766 24.3262C30.9766 24.4434 30.8594 24.5606 30.7031 24.5606H30.3125C29.9219 24.5606 29.6484 24.8731 29.6484 25.2246C29.6484 25.6152 29.9609 25.8887 30.3125 25.8887H30.4297C30.5859 25.8887 30.7031 26.0059 30.7031 26.1621C30.7031 26.3184 30.5859 26.4356 30.4297 26.4356H24.4922C24.1797 26.4356 23.9063 26.2793 23.7109 26.0449C23.2813 25.4199 22.5781 25.0684 21.8359 25.0684H21.4844V19.3262H22.1875H22.3047C24.5703 18.8965 26.4453 17.2949 27.2656 15.1465L27.8125 13.7793L28.0859 13.9356C28.3203 14.0918 28.4375 14.3262 28.3984 14.5996L27.8125 18.5449C27.7344 18.9746 28.0859 19.3262 28.4766 19.3262H31.3672C31.5234 19.3262 31.6406 19.4824 31.6016 19.6387Z"/>
</svg>