<svg width="150" height="103" viewBox="0 0 150 103" fill="none" xmlns="http://www.w3.org/2000/svg">
<path d="M76.9136 0.0292049C77.5088 0.139456 77.899 0.487172 78.1094 1.05153C78.4764 2.0384 78.8126 3.03297 78.9452 4.0846C78.9865 4.35128 78.9909 4.62239 78.9583 4.89028C78.9436 4.98819 78.8889 5.09536 79.0508 5.12928C79.1981 5.16012 79.2135 5.06221 79.2459 4.9589C79.387 4.50633 79.5219 4.05067 79.6846 3.60581C79.9436 2.89959 80.5905 2.55341 81.1949 2.77469C81.8117 3.00136 82.0669 3.69987 81.7878 4.4192C81.5384 5.06568 81.2351 5.69006 80.8811 6.28576C80.8315 6.35962 80.7918 6.43973 80.7632 6.524C80.7558 6.56255 80.7613 6.60247 80.7789 6.63758C80.7964 6.67269 80.8251 6.70105 80.8603 6.71829C80.9313 6.75761 80.9659 6.67511 81.003 6.62962C81.1317 6.46926 81.2558 6.30581 81.3885 6.14544C81.4925 6.01592 81.5966 5.88408 81.71 5.75995C82.2335 5.19867 83.0206 5.12774 83.5364 5.59187C84.0522 6.05601 84.0761 6.85167 83.5742 7.42914C83.074 8.01681 82.5224 8.55865 81.9258 9.04821C81.7469 9.19161 81.6298 9.32885 81.747 9.5879C81.9782 9.52545 82.1324 9.32885 82.326 9.19624C82.9289 8.77605 83.6104 8.82385 83.9759 9.32345C84.3529 9.83924 84.1972 10.5432 83.5796 10.9541C82.6945 11.5431 81.8187 12.1638 80.7269 12.3303C80.5596 12.3557 80.5681 12.4375 80.5928 12.5716C81.5573 17.8544 81.2967 23.192 81.2867 28.5172C81.2867 29.6081 81.1957 30.6983 81.1471 31.7885C81.0854 32.0868 81.1471 32.3898 81.1148 32.6898C81.0628 32.9385 81.037 33.192 81.0377 33.4461C81.0307 33.2057 81.0567 32.9655 81.1148 32.7322C81.1325 32.5471 81.0862 32.3467 81.2181 32.1863C82.0399 27.8911 84.8132 25.3245 88.6966 23.7455C88.7314 23.7248 88.7708 23.7131 88.8112 23.7116C88.8516 23.7102 88.8918 23.7189 88.9279 23.7371C88.6535 24.0586 88.3643 24.3646 88.1107 24.6985C86.8995 26.2952 86.2834 28.1301 86.0444 30.0954C85.7383 32.5864 86.0097 35.012 87.022 37.3303C87.5024 38.4244 88.1708 39.3858 89.0952 40.1645C89.372 40.3958 89.5293 40.4012 89.756 40.0959C90.8299 38.6503 91.4275 37.0181 91.7135 35.2587C91.9571 33.7637 91.9001 32.2927 91.3349 30.8641C91.0959 30.2619 90.7459 29.7284 90.3011 29.1949C90.6033 29.228 90.8246 29.3491 91.0481 29.4547C92.2355 30.0245 93.1537 30.9095 93.9309 31.9511C94.9586 33.3212 95.6525 34.8632 96.1197 36.5038C96.1586 36.5423 96.188 36.5893 96.2055 36.6411C96.223 36.6929 96.2282 36.748 96.2207 36.8022C96.1806 36.5709 96.2754 36.3041 96.1983 36.0312C95.9377 32.2634 95.5469 28.5141 94.587 24.8457C94.5099 24.5651 94.442 24.4811 94.1375 24.5666C93.4498 24.7617 92.7366 24.7409 92.0319 24.6846C91.5169 24.643 91.1908 24.2413 91.2309 23.7787C91.271 23.3161 91.6726 23.0077 92.1861 23.027C92.3766 23.0347 92.567 23.0648 92.7798 23.0871C92.7235 22.8042 92.5785 22.7078 92.3079 22.7016C91.7809 22.6709 91.2583 22.5867 90.7482 22.4503C90.18 22.313 89.8369 21.798 89.9649 21.3108C90.0975 20.8096 90.6264 20.529 91.19 20.6662C91.4259 20.7233 91.6595 20.7919 91.9001 20.8566C91.9718 20.667 91.9332 20.5675 91.7258 20.5228C91.3627 20.4457 91.0019 20.3509 90.6465 20.2468C89.9888 20.0533 89.685 19.6084 89.8516 19.1065C90.0235 18.5884 90.5455 18.408 91.1985 18.6439C91.5154 18.7603 91.8284 18.8868 92.1807 19.024C92.1645 18.9284 92.1707 18.8783 92.1507 18.8629C91.1607 18.1196 90.6087 17.0541 90.069 15.9886C89.9342 15.7211 89.9101 15.4113 90.002 15.1261C90.0939 14.841 90.2944 14.6036 90.5601 14.4652C91.1052 14.1961 91.8006 14.4312 92.0897 15.0349C92.5832 16.0642 93.0774 17.0989 93.1021 18.2769C93.1021 18.354 93.0866 18.4365 93.1946 18.455C93.331 18.4782 93.3279 18.3779 93.3488 18.2885C93.4413 17.903 93.5222 17.5121 93.6325 17.132C93.806 16.5314 94.2994 16.2207 94.8144 16.3656C95.3541 16.516 95.6093 17.0595 95.4312 17.6632C95.2703 18.2191 95.0621 18.7603 94.809 19.2807C94.7443 19.4141 94.6263 19.5529 94.8429 19.6855C95.038 19.4033 95.2284 19.1127 95.4327 18.8374C95.8105 18.3363 96.4774 18.2098 96.9323 18.5414C97.3995 18.8814 97.4921 19.5321 97.1258 20.051C96.749 20.5879 96.3195 21.0859 95.8437 21.5374C95.6972 21.6762 95.6016 21.8026 95.7612 22C95.9362 21.8512 96.1043 21.6916 96.287 21.5559C96.7172 21.2306 97.2538 21.2707 97.5699 21.6415C97.6477 21.7365 97.7055 21.8462 97.7399 21.964C97.7743 22.0818 97.7846 22.2054 97.7702 22.3273C97.7558 22.4492 97.717 22.5669 97.6561 22.6735C97.5952 22.7801 97.5135 22.8733 97.4157 22.9476C96.7087 23.5204 96.0041 24.1102 95.0889 24.3353C94.8522 24.3932 94.9478 24.5412 94.9817 24.6622C95.3587 26.0107 95.6209 27.3846 95.856 28.7623C96.0172 29.7099 96.1436 30.6628 96.3101 31.615C96.4389 30.9257 96.4913 30.2272 96.6416 29.5418C96.8907 28.4162 97.25 27.3399 97.9639 26.4131C98.7711 25.3654 99.8544 24.8211 101.161 24.717C102.097 24.6399 103.012 24.717 103.85 25.1904C105.863 26.3152 106.117 29.235 104.313 30.5873C103.614 31.1131 102.817 31.2634 101.976 31.0892C101.691 31.0324 101.422 30.9159 101.185 30.7475C100.949 30.5791 100.75 30.3625 100.603 30.112C100.456 29.8615 100.364 29.5828 100.333 29.2941C100.301 29.0054 100.331 28.7133 100.42 28.437C100.536 28.0925 100.777 27.8042 101.096 27.6296C101.415 27.455 101.788 27.4069 102.14 27.4948C102.305 27.5319 102.454 27.617 102.57 27.7392C102.796 27.989 102.832 28.2674 102.647 28.548C102.605 28.614 102.551 28.6708 102.486 28.7147C102.422 28.7586 102.349 28.7887 102.273 28.8032C102.196 28.8177 102.117 28.8162 102.041 28.7988C101.965 28.7814 101.894 28.7485 101.831 28.7022C101.594 28.5388 101.385 28.5041 101.173 28.7022C100.946 28.9127 100.992 29.1648 101.11 29.4107C101.322 29.8517 101.945 30.11 102.542 30.0152C103.375 29.8834 103.917 29.3275 104.035 28.4817C104.158 27.5974 103.733 26.7979 102.94 26.4201C101.184 25.5836 99.2329 26.7146 99.0294 28.6698C98.8891 30.0106 99.3617 31.1624 100.129 32.2164C100.481 32.7044 100.893 33.15 101.26 33.6296C102.715 35.5285 103.521 37.6665 103.605 40.0673C103.605 40.1543 103.623 40.2402 103.659 40.3194C104.507 39.1021 105.362 37.897 106.512 36.9448C107.672 35.9816 109.017 35.2665 110.465 34.8439C110.368 35.1523 110.156 35.2695 110.009 35.4329C109.149 36.3882 108.61 37.4598 108.754 38.7859C108.844 39.634 109.189 40.3904 109.614 41.1151C110.257 42.2161 111.064 43.2022 111.819 44.2229C112.477 45.1119 113.114 46.0132 113.576 47.0232C113.635 47.1496 113.668 47.2483 113.848 47.1519C116.084 45.9476 118.356 46.2013 120.625 47.0432C122.919 47.8913 124.957 49.2089 126.958 50.5898C129.656 52.4463 132.23 54.4755 134.96 56.2866C136.92 57.588 138.934 58.7923 141.19 59.5247C142.788 60.0436 144.41 60.2957 146.076 59.867C147.174 59.5825 148.075 59.0629 148.42 57.8825C148.79 56.6166 148.26 55.4154 147.171 55.0615C146.11 54.7199 145.166 55.2072 144.952 56.2072C144.757 57.1154 145.533 57.8594 146.429 57.6158C146.755 57.5271 146.974 57.3205 146.986 56.9635C146.995 56.6628 146.787 56.531 146.531 56.6875C146.346 56.8016 146.185 56.8617 146.012 56.6998C145.936 56.638 145.881 56.5548 145.854 56.4611C145.826 56.3675 145.827 56.2677 145.858 56.1748C145.925 55.9697 146.098 55.888 146.303 55.8625C147.093 55.7638 147.622 56.3251 147.475 57.11C147.335 57.8602 146.755 58.386 146.025 58.4253C145.06 58.4769 144.252 57.9488 143.996 57.1015C143.547 55.5989 144.69 54.0006 146.258 53.932C148.339 53.8402 149.687 54.9443 149.933 56.9388C150.01 57.1925 149.9 57.4616 149.999 57.7137V57.7908C149.8 57.945 149.864 58.1832 149.804 58.3813C149.241 60.2548 147.947 61.261 146.053 61.5609L145.447 61.6588C145.314 61.7136 145.164 61.6511 145.032 61.7143H143.545C143.364 61.6372 143.168 61.7228 142.986 61.6573C141.481 61.5401 140.029 61.1762 138.591 60.7221C136.556 60.064 134.578 59.2388 132.678 58.2549C131.218 57.5094 129.83 56.6358 128.438 55.777C126.946 54.8518 125.436 53.9651 123.857 53.2003C122.565 52.5689 121.22 52.0562 119.803 51.7701C119.629 51.7354 119.444 51.6637 119.255 51.693C119.1 51.6159 118.931 51.6992 118.777 51.6352C118.366 51.5986 117.951 51.5986 117.539 51.6352C117.385 51.6977 117.208 51.6198 117.052 51.6915C116.358 51.7046 115.709 51.929 115.055 52.1256C114.307 52.3658 113.538 52.5375 112.758 52.6383C112.273 52.678 111.785 52.678 111.299 52.6383L110.926 52.6198C110.802 52.5427 110.654 52.6198 110.528 52.5596C109.463 52.4601 108.423 52.1784 107.453 51.727C106.597 51.323 105.825 50.7671 105.063 50.2027C103.719 49.2004 102.314 48.3046 100.79 47.5976C99.1859 46.8528 97.5391 46.2537 95.7997 45.8898C94.9339 45.7086 94.0673 45.5699 93.1946 45.4465C93.0404 45.3694 92.87 45.4534 92.7166 45.3879L92.2062 45.3679C91.416 45.3147 90.6232 45.3147 89.8331 45.3679C88.2849 45.465 86.7784 45.7279 85.3405 46.354C84.4739 46.731 83.7261 47.3061 82.8919 47.7263C82.0401 48.148 81.1525 48.4932 80.2397 48.7579C79.3237 49.03 78.3808 49.1496 77.4464 49.3192C77.3161 49.3793 77.1673 49.3084 77.0378 49.377L76.5975 49.3993C76.4133 49.4603 76.212 49.3793 76.0316 49.4541H73.933C73.7495 49.377 73.5514 49.4603 73.3671 49.3986L72.9269 49.377C72.7973 49.3084 72.6485 49.377 72.5182 49.3192C71.1609 49.174 69.8264 48.8633 68.5446 48.394C67.57 48.0231 66.6361 47.5531 65.7575 46.9916C64.7035 46.3369 63.5344 45.8892 62.3127 45.6724C61.5887 45.539 60.8671 45.4072 60.1308 45.3709C59.3407 45.3181 58.5479 45.3181 57.7577 45.3709L57.2481 45.3918C57.0939 45.4573 56.922 45.3717 56.7693 45.4504C56.0238 45.502 55.2832 45.609 54.5535 45.7703C53.5454 45.9821 52.5505 46.2522 51.5736 46.5791C49.0124 47.4588 46.6771 48.7594 44.5407 50.4124C43.1437 51.5081 41.4959 52.2386 39.7459 52.538C39.6451 52.5499 39.5437 52.5563 39.4421 52.5573C39.3157 52.6205 39.1677 52.5411 39.0435 52.6174L38.6704 52.636C38.1847 52.6757 37.6966 52.6757 37.2109 52.636C35.9773 52.5697 34.8417 52.0616 33.6497 51.8048C33.4084 51.7524 33.1617 51.7277 32.9173 51.6892C32.7631 51.6167 32.5881 51.6954 32.4308 51.6329C32.0189 51.5963 31.6045 51.5963 31.1926 51.6329C31.0384 51.6961 30.8657 51.6129 30.7123 51.69C29.7354 51.7516 28.8187 52.0608 27.9128 52.3977C25.7309 53.2103 23.7379 54.3853 21.7611 55.5973C19.9585 56.7014 18.1698 57.8332 16.2501 58.7329C14.2964 59.6465 12.3103 60.4761 10.2179 61.0343C9.15457 61.3178 8.07247 61.5255 6.97975 61.6557C6.82092 61.7159 6.64745 61.6411 6.4894 61.7112H4.93355C4.80094 61.648 4.65214 61.7112 4.51799 61.6557C3.76705 61.5663 3.02921 61.4375 2.33378 61.1083C1.19195 60.5686 0.520421 59.6435 0.143408 58.4808C0.0717063 58.2603 0.0663092 58.0182 0.0323858 57.7869C-0.00843525 57.4817 -0.00843525 57.1724 0.0323858 56.8671C0.425589 54.2049 2.66993 53.6483 4.23118 54.0183C5.54185 54.3267 6.36064 55.8001 5.97129 57.0899C5.75465 57.807 5.24811 58.2333 4.52647 58.3821C3.90197 58.5116 3.3245 58.4137 2.87347 57.9041C2.63123 57.6339 2.48678 57.2902 2.4633 56.928C2.45125 56.7604 2.48079 56.5925 2.54928 56.439C2.61778 56.2856 2.72312 56.1515 2.85594 56.0486C2.98876 55.9457 3.14495 55.8771 3.31062 55.8491C3.47629 55.8211 3.64632 55.8345 3.8056 55.888C4.08469 55.9844 4.19957 56.2311 4.09086 56.5048C3.9729 56.7977 3.76473 56.8764 3.48024 56.7106C3.34686 56.6335 3.22273 56.5711 3.09474 56.6798C2.96676 56.7885 2.95442 56.9504 2.99837 57.1069C3.03056 57.2254 3.09307 57.3334 3.17973 57.4203C3.26639 57.5072 3.37422 57.5701 3.49257 57.6027C3.6886 57.6681 3.89833 57.681 4.10091 57.6402C4.30348 57.5993 4.49184 57.5062 4.64724 57.37C4.80264 57.2338 4.91966 57.0592 4.98666 56.8637C5.05367 56.6683 5.06831 56.4586 5.02915 56.2557C4.87495 55.3876 4.10396 54.8394 3.22041 54.9666C1.99994 55.144 1.25285 56.1887 1.45562 57.4592C1.61753 58.4723 2.14951 59.2048 3.11787 59.6034C4.72461 60.2641 6.35602 60.1793 7.99051 59.7576C10.0005 59.2387 11.8146 58.2857 13.5701 57.2133C16.1144 55.6544 18.4782 53.8402 20.8945 52.097C23.0494 50.5412 25.212 48.9938 27.6021 47.8096C29.1287 47.054 30.7053 46.4619 32.4331 46.3617C33.652 46.2907 34.8162 46.4889 35.8987 47.0556C36.2179 47.2221 36.2796 47.1327 36.3551 46.8381C36.5864 45.943 37.049 45.1589 37.5517 44.3964C38.0097 43.7025 38.4853 43.0133 38.9441 42.3148C39.1867 41.952 39.3899 41.5643 39.5501 41.1583C39.9811 40.045 39.749 39.1691 38.8146 38.4205C38.6172 38.2663 38.4059 38.1206 38.1762 37.9533C40.9047 37.9749 42.9617 39.146 43.5677 41.0457C43.9847 40.2786 44.3221 39.4707 44.5746 38.6348C45.0372 37.1083 45.2037 35.5709 44.6918 34.0174C44.3749 33.0567 43.8113 32.2572 43.0766 31.5502C44.1143 31.5333 46.1998 33.0059 47.3016 34.5208C48.3586 35.9742 48.9708 37.6241 49.4334 39.3472C49.4788 38.5886 49.4472 37.8315 49.5228 37.0744C49.8027 34.2988 50.8959 31.8872 52.6916 29.7777C53.5288 28.794 54.2944 27.7732 54.6622 26.5072C54.9546 25.5282 54.9248 24.4812 54.5774 23.5204C53.8581 21.4765 51.0725 21.162 49.7973 22.1935C49.0378 22.8103 48.8243 23.6206 49.0155 24.5443C49.1805 25.343 49.6747 25.8704 50.4734 26.067C50.9854 26.1926 51.4965 26.1641 51.9622 25.8796C52.276 25.6876 52.4718 25.417 52.5019 25.0377C52.5136 24.9285 52.4918 24.8184 52.4393 24.722C52.3868 24.6255 52.3062 24.5474 52.2081 24.498C52.1212 24.4429 52.0193 24.4164 51.9165 24.4222C51.8138 24.428 51.7154 24.4658 51.6353 24.5304C51.2151 24.8172 50.7625 24.7309 50.5467 24.3438C50.3308 23.9568 50.505 23.5034 50.9322 23.2752C51.8095 22.8126 53.0138 23.4163 53.2451 24.4379C53.6229 26.1194 52.313 27.5858 50.5467 27.4601C48.9978 27.3499 47.8706 26.4756 47.4172 25.0315C46.9277 23.4726 47.4041 21.8281 48.6285 20.859C49.6408 20.0587 50.815 19.8281 52.0701 19.8991C54.7262 20.0533 56.3052 21.5644 57.1718 23.9599C57.6475 25.2883 57.8703 26.6799 57.9558 28.0947C57.9816 28.1526 58.0003 28.2134 58.0114 28.2759C58.0211 28.3386 58.0177 28.4026 58.0013 28.464C58.0422 28.3699 58.0013 28.2512 58.0885 28.1718C58.3969 25.5836 58.7823 23.01 59.4616 20.4897C59.5294 20.2391 59.5387 20.1257 59.2195 20.0271C58.2311 19.7187 57.43 19.0841 56.6868 18.391C56.3052 18.0356 56.3183 17.4296 56.6375 17.0541C56.9566 16.6787 57.558 16.607 58.0013 16.92C58.2403 17.0888 58.4493 17.2993 58.6736 17.4921C58.7978 17.2685 58.7376 17.115 58.5611 16.9524C58.0632 16.469 57.6098 15.9418 57.2065 15.3772C56.7647 14.7774 56.8387 14.0134 57.3653 13.6232C57.8919 13.2331 58.6397 13.3919 59.0807 14.0026C59.2241 14.2007 59.3475 14.4097 59.4978 14.6032C59.5749 14.7019 59.6027 14.9293 59.7569 14.8599C59.955 14.7697 59.8093 14.6009 59.7461 14.4675C59.4756 13.9003 59.2512 13.3121 59.0753 12.7089C59.0407 12.5989 59.017 12.4858 59.0044 12.3712C58.9535 11.8045 59.2858 11.3195 59.7931 11.2085C60.0475 11.157 60.3119 11.1995 60.5373 11.3281C60.7627 11.4567 60.9338 11.6627 61.019 11.9078C61.167 12.3588 61.2792 12.8207 61.3544 13.2894C61.3721 13.3889 61.3459 13.5531 61.5086 13.5554C61.7198 13.5554 61.6473 13.3788 61.6473 13.2671C61.6562 12.9071 61.7149 12.5501 61.8216 12.2062C62.0591 11.3672 62.3837 10.5553 62.7899 9.78373C63.143 9.10912 63.9032 8.83542 64.5131 9.14535C65.1229 9.45529 65.3743 10.2463 65.0189 10.9094C64.4129 12.042 63.8192 13.1869 62.7498 13.9771C62.6943 14.018 62.6357 14.0589 62.6789 14.1259C62.7221 14.193 62.7922 14.1699 62.8547 14.146C63.2024 14.0134 63.5486 13.8692 63.8971 13.7505C64.5223 13.5377 65.1075 13.7828 65.2609 14.3071C65.4205 14.8468 65.0998 15.3595 64.4607 15.5445C64.0544 15.6625 63.6426 15.762 63.2271 15.8483C63.0405 15.8876 62.8732 15.9516 62.9357 16.1567C62.9935 16.3441 63.1484 16.1798 63.2548 16.1567C63.4938 16.1135 63.7267 16.0256 63.9672 16.0025C64.5277 15.947 65.0281 16.3109 65.1114 16.812C65.1529 17.0687 65.0978 17.3316 64.9567 17.5499C64.8155 17.7683 64.5984 17.9265 64.3473 17.994C63.727 18.1612 63.0908 18.2622 62.4492 18.2954C62.1693 18.3108 62.0313 18.4196 61.9642 18.6809C62.1647 18.7272 62.3497 18.6809 62.5417 18.667C63.1461 18.6154 63.628 18.9623 63.6881 19.4966C63.7452 20.0032 63.3412 20.4473 62.7452 20.4989C61.9226 20.5691 61.0976 20.5567 60.302 20.3177C59.9974 20.2267 59.9411 20.3355 59.8764 20.5783C59.5659 21.7286 59.3146 22.8923 59.1224 24.0693C58.639 27.0604 58.3188 30.0756 58.1632 33.1015C58.1632 33.1523 58.1632 33.204 58.1632 33.2557C58.0738 33.5201 58.1895 33.7953 58.1417 34.0128C58.1518 33.9355 58.1842 33.8629 58.2349 33.8038C59.541 29.7685 62.3929 27.2528 66.2054 25.6838C66.2894 25.6491 66.3712 25.6106 66.4807 25.6645C66.4652 25.8303 66.3187 25.9066 66.2224 26.0107C64.793 27.5635 63.995 29.3552 64.1924 31.5055C64.3427 33.1392 65.0297 34.5625 66.0034 35.8547C67.3187 37.5986 68.9902 38.917 70.9254 39.9124C70.9693 39.9347 71.0164 39.9501 71.1012 39.9848C71.0194 39.22 70.9184 38.4891 70.8699 37.7528C70.5908 33.3297 71.856 29.4138 74.7109 26.023C75.6407 24.9182 76.5312 23.7949 77.0301 22.4171C77.4618 21.2406 77.5613 20.0471 77.2305 18.8266C76.7078 16.8784 74.9561 15.7358 72.9485 16.0426C71.6709 16.2377 70.6895 16.8136 70.3271 18.1358C69.9092 19.6562 70.6887 21.0964 72.105 21.4326C72.6809 21.569 73.2545 21.5382 73.7919 21.2537C74.2005 21.0378 74.4696 20.714 74.5444 20.246C74.5743 20.1066 74.5584 19.9612 74.4991 19.8314C74.4398 19.7017 74.3402 19.5946 74.2152 19.5259C73.9638 19.3717 73.7271 19.3717 73.472 19.5683C73.0433 19.9006 72.509 19.8181 72.216 19.4141C71.923 19.0101 72.0364 18.4481 72.4797 18.1281C73.482 17.4057 75.1118 18.095 75.4418 19.381C75.909 21.199 74.6323 22.9522 72.7565 23.1048C69.7311 23.35 67.8862 20.8605 68.1614 18.1944C68.3703 16.169 69.5338 14.8121 71.4466 14.2408C73.8929 13.5099 76.2113 13.8399 78.1842 15.5916C79.2998 16.5815 79.9282 17.8914 80.3761 19.2923C80.5303 19.778 80.656 20.273 80.7501 20.6084C80.7501 19.7603 80.7863 18.758 80.7424 17.7604C80.6707 16.1575 80.5273 14.5592 80.2235 12.9802C80.1233 12.4614 80.1302 12.4598 79.6267 12.5362C78.7524 12.668 77.882 12.5894 77.0185 12.4521C76.7619 12.4092 76.5319 12.2687 76.3766 12.06C76.2213 11.8514 76.1526 11.5907 76.1851 11.3326C76.2316 11.0702 76.3782 10.8361 76.5939 10.6797C76.8096 10.5232 77.0777 10.4566 77.3415 10.4938C77.5937 10.5262 77.8442 10.5709 78.1272 10.6203C78.0609 10.3304 77.966 10.1669 77.6438 10.1276C77.008 10.0397 76.3822 9.89097 75.7749 9.6835C75.081 9.45837 74.7217 8.83079 74.9268 8.22325C75.1219 7.64424 75.7803 7.37517 76.4626 7.59181C76.6453 7.65041 76.8242 7.72288 77.0085 7.77839C77.1072 7.80769 77.2398 7.96343 77.3076 7.76606C77.3662 7.59104 77.2598 7.49544 77.0763 7.44918C76.5662 7.32086 76.0683 7.14801 75.5883 6.93262C75.1435 6.73371 74.8744 6.28962 74.9168 5.86172C74.9388 5.66217 75.0211 5.47407 75.1528 5.32254C75.2845 5.171 75.4593 5.06324 75.6538 5.01363C75.9165 4.93897 76.1975 4.96339 76.4433 5.08225C76.8288 5.26344 77.2043 5.45155 77.5836 5.63968C77.6569 5.67514 77.7263 5.70675 77.7872 5.6258C77.8481 5.54484 77.7764 5.51401 77.7293 5.47623C76.9946 4.88951 76.5783 4.0738 76.1588 3.26504C75.9468 2.85564 75.7587 2.43237 75.586 2.00447C75.2229 1.10704 75.6006 0.33066 76.5243 0.0407692C76.6495 -0.00471294 76.786 -0.00876664 76.9136 0.0292049Z" fill="#2BA84A"/>
<path d="M110.939 89.1753C111.611 89.0665 112.095 88.6903 112.419 88.1059C112.579 87.816 112.739 87.5184 112.765 87.1753C112.821 86.8842 112.821 86.5852 112.765 86.2941C112.411 85.0674 111.312 84.187 110.048 83.9811C108.295 83.6966 106.887 84.419 105.544 85.3882C104.45 86.1754 103.624 87.2154 102.823 88.2786C102.355 88.9008 101.753 89.3672 101.103 89.7782C99.8697 90.5615 98.5012 90.9925 97.071 91.243C96.6978 91.307 96.3316 91.4165 95.9492 91.4173C95.795 91.4836 95.6215 91.3988 95.4689 91.4759L95.024 91.4951C94.7873 91.5653 94.5383 91.4712 94.3031 91.5522H91.6648C91.4035 91.4697 91.1305 91.5645 90.8684 91.4967L90.274 91.4751C90.1198 91.4026 89.9455 91.4751 89.789 91.4196L89.3511 91.3972C89.2208 91.3317 89.072 91.3972 88.9402 91.3417L88.6472 91.3224C88.5215 91.2454 88.3735 91.3224 88.2463 91.2631C87.244 91.2053 86.2656 90.9362 85.2633 90.8583C85.1091 90.7858 84.9341 90.8629 84.7768 90.802C84.2364 90.755 83.6928 90.755 83.1524 90.802C83.0213 90.8568 82.8733 90.7912 82.743 90.8568C80.5457 91.0796 78.7801 91.977 78.1779 94.4033C78.1525 94.5536 78.1391 94.7057 78.1379 94.8582C78.0859 95.2319 78.0859 95.6109 78.1379 95.9846C78.1887 97.4872 79.4 98.855 81.0229 99.0462C81.9226 99.1518 82.7121 98.9174 83.3706 98.3269C83.7234 98.0007 83.9637 97.5709 84.0567 97.0994C84.2163 96.3408 84.1523 95.6346 83.5417 95.0664C83.0483 94.6092 82.0067 94.3725 81.349 94.6878C80.9003 94.9021 80.6551 95.2984 80.689 95.7872C80.7045 95.9946 80.7885 96.165 80.9735 96.2498C81.1416 96.3269 81.2819 96.2498 81.423 96.1288C81.6651 95.9175 81.9535 95.8713 82.2295 96.0455C82.3745 96.1314 82.4889 96.2606 82.5565 96.415C82.6242 96.5694 82.6416 96.7411 82.6065 96.9059C82.5864 97.0522 82.5208 97.1885 82.4189 97.2955C82.3171 97.4024 82.1842 97.4746 82.0391 97.5019C80.9651 97.7371 79.9743 97.3161 79.8294 96.1827C79.7897 95.955 79.7897 95.722 79.8294 95.4942C80.0383 94.061 81.2426 93.0687 82.8363 93.2368C84.5509 93.4172 85.6326 94.519 85.8709 96.1118C85.9079 96.417 85.9079 96.7256 85.8709 97.0308C85.7167 97.892 85.416 98.6923 84.8354 99.3646C84.0922 100.22 83.1547 100.705 82.0259 100.791C80.8371 100.878 79.676 100.756 78.6035 100.179C77.6563 99.6733 76.8833 98.8941 76.3854 97.9429C76.0017 97.2297 75.7571 96.45 75.6645 95.6454C75.6067 95.5128 75.673 95.3632 75.6082 95.2313C75.6082 94.8633 75.6082 94.4958 75.6082 94.1288C75.6769 94.0001 75.6082 93.8536 75.6638 93.7225C75.7998 92.4631 76.2705 91.263 77.0269 90.2469C78.0546 88.8591 79.4424 88.0758 81.1031 87.7243C81.4516 87.6472 81.8062 87.5986 82.1578 87.5369C82.2858 87.4814 82.4323 87.5531 82.5587 87.4806L83.0051 87.4613C83.7481 87.4228 84.4926 87.4228 85.2356 87.4613L85.9102 87.4822C86.0906 87.5593 86.288 87.4737 86.4691 87.5392L86.9032 87.5608C87.035 87.6248 87.1846 87.5608 87.3172 87.6163L87.6788 87.6379C87.8091 87.705 87.9579 87.6379 88.089 87.695L88.3773 87.7142C88.5053 87.7836 88.6534 87.7142 88.7829 87.7721L89.0712 87.7913C89.1984 87.8615 89.3472 87.7913 89.4768 87.8499C90.0288 87.9587 90.5896 88.0165 91.1521 88.0226C91.2801 88.0905 91.4274 88.0226 91.5577 88.0774L91.9917 88.1005C92.1498 88.1707 92.3248 88.0951 92.4836 88.1576L92.9971 88.1768C93.3101 88.2624 93.6347 88.1606 93.9485 88.2339H94.8783C95.1142 88.1668 95.3625 88.2593 95.5969 88.1784C97.6415 88.0504 99.5042 87.4845 101.021 86.0134C102.203 84.8647 103.464 83.803 104.936 83.039C106.076 82.4476 107.323 82.0905 108.603 81.9889C108.959 81.9507 109.319 81.9507 109.676 81.9889C110.976 82.1279 112.193 82.6978 113.131 83.608C113.774 84.2248 114.148 84.9957 114.318 85.8631C114.373 85.9965 114.309 86.1453 114.373 86.2771C114.373 86.3866 114.373 86.4953 114.373 86.604C114.309 86.7343 114.373 86.8816 114.32 87.0134C114.14 87.8885 113.832 88.7019 113.172 89.3372C112.176 90.2947 111.021 90.5391 109.697 90.1552C108.821 89.9007 108.211 89.4019 107.9 88.5361C107.856 88.4127 107.884 88.284 107.817 88.1737C107.755 88.0419 107.826 87.8923 107.758 87.762V87.5893C107.825 87.4583 107.758 87.3079 107.817 87.1753C108.043 86.0805 108.607 85.5023 109.599 85.4321C110.37 85.3774 111.295 85.5979 111.62 86.7906C111.658 86.9926 111.658 87.2 111.62 87.402C111.279 88.23 110.857 88.4721 110.159 88.2424C109.988 88.1868 109.837 88.1074 109.747 87.9425C109.706 87.8193 109.704 87.6867 109.741 87.5624C109.939 87.1769 110.266 87.1252 110.532 87.4374C110.6 87.5145 110.647 87.6587 110.795 87.5955C110.942 87.5323 111.064 87.4313 111.084 87.2678C111.128 86.9355 110.99 86.6996 110.699 86.5238C109.89 86.0381 109.032 86.4105 108.906 87.3156C108.853 87.5042 108.853 87.7038 108.906 87.8923C108.97 88.5862 109.589 89.1375 110.364 89.183C110.553 89.2311 110.751 89.2284 110.939 89.1753Z" fill="#2BA84A"/>
<path d="M38.3473 86.7798C38.5485 85.6896 39.372 85.3434 40.3688 85.4283C41.4027 85.5154 41.8931 86.2393 42.149 87.1645C42.2107 87.2971 42.1421 87.4475 42.2084 87.5785V87.7528C42.1413 87.8831 42.2084 88.0326 42.1498 88.1645C41.9956 88.6672 41.7836 89.1274 41.3881 89.506C40.8738 89.9979 40.2316 90.2153 39.5763 90.3009C38.4684 90.4466 37.4537 90.1467 36.6835 89.287C36.1061 88.6409 35.7252 87.8885 35.6465 87.0065C35.5957 86.8739 35.6573 86.7266 35.5933 86.5955V86.2702C35.6573 86.1383 35.5933 85.9895 35.6489 85.8562C35.9788 83.9102 37.2872 82.8771 39.0235 82.2479C39.4321 82.0999 39.8646 82.0537 40.2917 81.9843C40.6485 81.9461 41.0082 81.9461 41.3649 81.9843C43.5461 82.1793 45.4041 83.1192 47.0988 84.4514C47.9253 85.1006 48.6569 85.8554 49.4618 86.5269C50.4572 87.3573 51.6484 87.7535 52.8927 88.0072C53.3777 88.1051 53.8672 88.2069 54.3692 88.1753C54.6043 88.2524 54.8526 88.1637 55.0885 88.23H56.0191C56.3329 88.1568 56.6567 88.2585 56.9697 88.173L57.4839 88.1537C57.6428 88.0912 57.8178 88.1668 57.9758 88.0966L58.4099 88.0735C58.5402 88.0195 58.6867 88.0866 58.8154 88.0188C59.3798 88.0188 59.9349 87.9301 60.4908 87.8461C60.6195 87.7844 60.7683 87.8576 60.8963 87.7875L61.1847 87.7682C61.3142 87.7081 61.4622 87.7798 61.5902 87.7104L61.8786 87.6911C62.0096 87.6317 62.1584 87.7011 62.2887 87.634L62.6495 87.6124C62.7829 87.5577 62.9317 87.6209 63.0643 87.5569L63.4976 87.5354C63.6796 87.4698 63.877 87.5577 64.0574 87.4783L64.732 87.4575C65.4747 87.4189 66.2189 87.4189 66.9617 87.4575L67.4088 87.4768C67.5353 87.5492 67.681 87.4768 67.8098 87.533C69.0549 87.7435 70.2592 88.0419 71.3332 88.7712C72.9314 89.8576 73.8003 91.3926 74.2097 93.2314C74.2452 93.3933 74.2722 93.5567 74.3038 93.7186C74.3585 93.8489 74.2907 93.9962 74.3593 94.1249C74.3593 94.4924 74.3593 94.86 74.3593 95.2275C74.2945 95.3593 74.3593 95.5089 74.3022 95.6407C74.1141 96.6037 73.8481 97.5404 73.2899 98.3638C72.4187 99.6483 71.2229 100.459 69.6863 100.707C68.5368 100.892 67.3973 100.923 66.311 100.345C65.2246 99.767 64.5616 98.8503 64.2123 97.6915C64.1607 97.4731 64.1231 97.2517 64.0998 97.0285C64.062 96.7233 64.062 96.4146 64.0998 96.1095C64.227 94.9075 64.779 93.9761 65.9216 93.5159C67.186 93.0062 68.4582 93.0456 69.4142 94.0479C69.7997 94.4549 69.9955 94.9615 70.1397 95.4919C70.1802 95.7196 70.1802 95.9527 70.1397 96.1804C69.7997 97.3993 68.987 97.6214 68.0295 97.5443C67.6556 97.5142 67.3487 97.2813 67.2978 96.9074C67.2764 96.7442 67.2995 96.5782 67.3646 96.427C67.4298 96.2759 67.5346 96.1451 67.6679 96.0485C67.9485 95.8388 68.2477 95.9229 68.499 96.1534C68.6378 96.2814 68.7974 96.3184 68.9547 96.2305C69.1798 96.1018 69.2461 95.882 69.2276 95.6314C69.1752 94.9214 68.6316 94.5937 67.9593 94.5459C67.1783 94.4904 66.4706 94.7155 66.0666 95.441C65.6271 96.2282 65.7142 97.0454 66.1598 97.8025C66.8453 98.9667 68.3394 99.41 69.6555 98.8449C70.7981 98.3546 71.5783 97.5504 71.7526 96.2621C71.7649 96.1673 71.8705 96.0925 71.8297 95.9792C71.8825 95.6058 71.8825 95.2269 71.8297 94.8535C71.6801 93.6863 71.1635 92.6948 70.2592 91.9616C69.6315 91.4614 68.8862 91.1304 68.0942 91.0002C67.8044 90.9485 67.5137 90.903 67.223 90.8552C67.0943 90.7881 66.9462 90.8552 66.8159 90.7997C66.2752 90.7527 65.7314 90.7527 65.1907 90.7997C65.0365 90.8606 64.8607 90.7835 64.705 90.856C64.2062 90.9138 63.7027 90.9431 63.2101 91.0395C62.7181 91.1381 62.2214 91.212 61.722 91.2607C61.5948 91.3232 61.4468 91.2461 61.3211 91.3201L61.0274 91.3394C60.8956 91.3957 60.7475 91.3294 60.6172 91.3949L60.1793 91.4173C60.0251 91.4766 59.8501 91.4003 59.6944 91.4728L59.0999 91.4944C58.8378 91.5622 58.5641 91.4681 58.3027 91.5499H55.6606C55.4293 91.4681 55.1756 91.563 54.9397 91.4928L54.4948 91.4735C54.3406 91.3964 54.1687 91.4812 54.0145 91.4149C52.872 91.3175 51.7468 91.0728 50.6669 90.6871C49.4287 90.25 48.2984 89.6193 47.3802 88.6564C46.9253 88.1783 46.5915 87.6063 46.1605 87.1075C45.3934 86.2039 44.4859 85.4297 43.4728 84.8146C42.4374 84.1978 41.3341 83.7668 40.1221 83.9356C38.8662 84.1106 37.7799 84.6295 37.2625 85.9201C37.2122 86.0378 37.19 86.1656 37.1978 86.2933C37.1427 86.585 37.1427 86.8844 37.1978 87.1761C37.2556 88.1668 38.1415 89.1351 39.025 89.1752C39.2158 89.2273 39.4171 89.2273 39.6079 89.1752C40.3619 89.0488 40.8954 88.6725 41.065 87.8854C41.1182 87.6966 41.1182 87.4967 41.065 87.3079C40.87 86.4136 40.0859 86.1406 39.4074 86.3997C38.9757 86.5647 38.7482 86.9972 38.8924 87.3603C38.9949 87.6186 39.1453 87.6117 39.3342 87.4714C39.7968 87.1306 39.8638 87.136 40.2285 87.5546C40.2463 87.6834 40.2964 87.8137 40.1977 87.9324C40.0291 88.086 39.8284 88.2001 39.6102 88.2662C39.0088 88.4497 38.4152 88.0673 38.3496 87.3943C38.3099 87.1914 38.3091 86.9829 38.3473 86.7798Z" fill="#2BA84A"/>
<path d="M61.8878 65.8513C61.8809 65.7326 61.8732 65.6139 61.8662 65.4951C61.7938 65.2083 61.8948 64.9092 61.8092 64.6232C61.8025 64.1426 61.7958 63.6622 61.7891 63.1822C61.712 62.7126 61.82 62.2354 61.7329 61.7659C61.7257 61.2617 61.7185 60.7572 61.7113 60.2524C61.6388 59.6796 61.7421 59.1006 61.6558 58.5277C61.7182 58.271 61.6095 58.0343 61.5409 57.8038C61.4638 57.547 61.2132 57.517 60.9835 57.5524C60.6681 57.601 60.5463 57.4653 60.5533 57.1669C60.5132 57.0444 60.5533 56.9156 60.5286 56.7938C60.4777 56.4908 60.5795 56.3219 60.9048 56.3312L62.2672 56.3104C62.4746 56.2425 62.6966 56.3358 62.9032 56.2533L63.3465 56.234C63.584 56.1654 63.8338 56.2572 64.0697 56.1778L65.4112 56.1724C65.513 56.5023 65.4637 56.8362 65.4374 57.17L65.4166 57.2988C65.2755 57.436 65.0828 57.308 64.9317 57.3936C64.7598 57.3628 64.7004 57.4422 64.7089 57.6072C64.7544 59.1584 64.6526 60.7104 64.742 62.2616C64.806 62.4467 64.7235 62.6471 64.7975 62.8298C64.7975 62.9332 64.7536 63.1151 64.9409 62.9355C65.5254 62.3873 66.0764 61.8044 66.5908 61.1899C66.9964 60.6934 67.3958 60.1877 67.6702 59.5963C67.7211 59.1919 67.7211 58.7826 67.6702 58.3782C67.708 58.0351 67.5237 57.7267 67.516 57.389C67.516 57.2942 67.3996 57.2255 67.2778 57.261C66.9008 57.298 66.9008 57.298 66.8252 56.7575V56.5039C66.8954 56.3613 66.7813 56.1022 67.0781 56.1007L67.4374 56.076C67.5916 56.0189 67.7658 56.0945 67.9216 56.022L68.7473 56.0012C69.1397 55.9287 69.5406 56.0305 69.9331 55.9457C70.4375 55.9711 70.9431 55.9634 71.4465 55.9226C71.5745 55.9133 71.711 55.8378 71.8235 55.9665V56.0637C71.7526 56.2179 71.8235 56.3929 71.7688 56.5517C71.7988 56.9534 71.6339 57.1261 71.2137 57.0844C70.8914 57.0528 70.6586 57.1461 70.8004 57.5655C70.8559 57.729 70.8305 57.9202 70.8421 58.0991C70.8814 58.842 70.8814 59.5866 70.8421 60.3295V60.4891C70.9061 60.6711 70.8197 60.8684 70.8983 61.0496L70.9192 61.6456C70.9862 61.8823 70.8945 62.1306 70.9747 62.3665L70.9955 63.2647C71.0687 63.6301 70.9662 64.0048 71.0518 64.3703L71.0726 65.5776C71.1451 65.9423 71.0433 66.3162 71.1296 66.6801C71.1358 66.9546 71.1427 67.2299 71.1489 67.5051C71.2183 67.7426 71.1258 67.9924 71.2052 68.2291C71.1905 68.7379 71.1905 68.7294 71.6955 68.7441C71.9369 68.751 72.2638 68.6246 72.3062 69.0471C72.3355 69.3293 72.3655 69.6114 72.2884 69.8952L72.0571 69.909C71.822 69.9777 71.5745 69.8836 71.3401 69.9653L69.7449 69.9854C69.5591 70.0494 69.3595 69.9684 69.1744 70.0416L68.6648 70.0632C68.4836 70.1295 68.287 70.0401 68.1066 70.1203C68.0812 70.1144 68.0555 70.1106 68.0295 70.1087C67.4729 70.1164 67.4729 70.1172 67.4189 69.5845C67.3618 69.4526 67.4289 69.3046 67.3626 69.1735C67.3819 69.0586 67.4104 68.9854 67.5623 68.9592C67.7519 68.9268 67.9709 68.9538 68.1251 68.7919C68.1855 68.4849 68.1881 68.1693 68.1328 67.8613L68.112 66.9631C68.0434 66.7256 68.1351 66.4758 68.0557 66.2399L68.0349 64.9585C67.9578 64.489 68.0657 64.0118 67.9786 63.5415C68.0272 63.1082 67.8838 62.6895 67.8815 62.2601C67.829 62.1059 67.8707 61.9432 67.8553 61.7852C67.8475 61.7081 67.8792 61.5932 67.7288 61.6402C67.0349 62.4513 66.4474 63.3479 65.8014 64.1945C65.6849 64.3487 65.5909 64.5214 65.4513 64.6455C65.0311 65.0087 64.9718 65.4612 65.0489 65.9631C65.1198 66.3024 65.0227 66.6508 65.1052 66.9901L65.1267 67.7364C65.1946 67.9677 65.0998 68.2175 65.183 68.4511C65.183 68.7109 65.0998 69.0247 65.5454 68.9754C65.6711 69.0525 65.8391 68.9407 65.9563 69.064L65.9725 69.2013C66.0427 69.411 65.9509 69.6361 66.0303 69.845C66.0488 70.1187 65.8931 70.2113 65.6495 70.2143C65.4953 70.2753 65.3187 70.1982 65.1622 70.2699L64.1083 70.2915C63.4915 70.3462 62.8785 70.2992 62.2641 70.3161C62.1253 70.3207 61.9819 70.2884 61.8462 70.3477C61.6242 70.3477 61.3998 70.3377 61.1785 70.3562C60.9889 70.3724 60.9418 70.2791 60.9357 70.1211C60.8991 69.997 60.8991 69.865 60.9357 69.741C61.0128 69.5367 60.7969 69.1635 61.2595 69.1851C61.4137 69.1219 61.5848 69.2059 61.7375 69.1273C62.0397 68.9576 62.0181 68.6431 62.0351 68.3732C62.0605 67.9808 62.0243 67.5853 62.015 67.1913C61.9487 67.0109 62.0382 66.8135 61.9572 66.6347L61.9387 66.2661C61.8878 66.1335 61.9487 65.9839 61.8878 65.8513Z" fill="#2BA84A"/>
<path d="M57.7245 57.4769C57.6544 57.8971 57.2743 57.7914 57.0307 57.8385C56.8109 57.8801 56.7454 57.9341 56.6937 58.1469C56.4362 59.2062 56.0677 60.2123 55.2512 60.9957C54.8935 61.3387 54.5766 61.6949 54.0408 61.7952C53.4641 61.9023 52.909 62.1082 52.4926 62.5662C52.3878 62.6818 52.3006 62.7496 52.4494 62.9316C52.5561 63.0527 52.6231 63.2035 52.6415 63.3638C52.6598 63.5242 52.6286 63.6862 52.552 63.8283C52.444 64.0326 52.5381 64.0904 52.6977 64.1606C53.6501 64.5866 54.6658 64.8539 55.7046 64.9516C55.9354 64.9617 56.1537 65.0593 56.3152 65.2245C56.8001 65.7241 57.1571 66.3116 57.4848 66.9207C57.8757 67.6485 58.2558 68.3856 58.7484 69.0517C58.9188 69.283 59.0807 69.3963 59.3853 69.3123C59.5634 69.2637 59.7839 69.1943 59.965 69.3547C60.0229 69.5135 59.9496 69.687 60.019 69.845C60.0101 69.9076 60.008 69.9709 60.0128 70.0339C60.0799 70.4071 59.9288 70.5528 59.5572 70.4965C59.481 70.4952 59.4049 70.5046 59.3313 70.5243C59.2025 70.5844 59.0545 70.5104 58.9281 70.5821L57.8664 70.6777C57.7122 70.7448 57.5403 70.6576 57.3884 70.7371L57.0176 70.7579C56.888 70.8134 56.7415 70.7432 56.6143 70.8134C56.383 70.7548 56.1702 70.8805 55.942 70.8905C55.7138 70.9005 55.5712 70.8542 55.5689 70.5975C55.5637 70.4737 55.5376 70.3518 55.4918 70.2367C55.3653 69.909 55.3538 69.7093 55.7924 69.7178C55.9351 69.7178 55.9659 69.6199 55.9042 69.4734C55.4658 68.4321 55.0323 67.3879 54.6036 66.3409C54.4787 66.0379 54.1718 66.0996 53.9567 66.0587C53.296 65.9323 52.68 65.694 52.0215 65.4057C52.0493 65.8166 52.0747 66.2014 52.0986 66.5853C52.1588 66.7395 52.0809 66.9145 52.1542 67.0695C52.1619 67.1905 52.1688 67.3123 52.1757 67.4334C52.2351 67.5598 52.158 67.7071 52.2343 67.8312C52.276 68.5559 52.3577 69.2745 52.5597 69.9753C52.7125 70.0336 52.881 70.0361 53.0354 69.9823C53.6476 69.9985 53.6877 70.0401 53.69 70.6684C53.69 71.0439 53.5604 71.1634 53.1757 71.1889C52.8612 71.2089 52.5489 71.2613 52.2359 71.2999C52.1056 71.3554 51.9583 71.2868 51.8296 71.3554L51.4657 71.3754C51.3115 71.4387 51.1364 71.3585 50.9815 71.4325L50.5397 71.4541C50.3855 71.5158 50.2136 71.434 50.0609 71.5111L49.6924 71.5296C49.5382 71.5936 49.3647 71.5104 49.2113 71.5875L48.6793 71.5913C48.6176 71.4656 48.697 71.3184 48.6199 71.195C48.5991 71.1125 48.5737 71.0316 48.5598 70.9483C48.5051 70.6152 48.5852 70.3909 48.9823 70.3786C49.1835 70.3736 49.3782 70.3071 49.5405 70.1881C49.5988 70.0398 49.601 69.8753 49.5467 69.7255C49.5405 69.5775 49.5336 69.4295 49.5274 69.2814C49.4619 69.0987 49.5482 68.9013 49.4703 68.7194C49.4634 68.5475 49.4572 68.3748 49.4503 68.2021C49.3825 67.9931 49.4734 67.7703 49.3932 67.5629L49.3732 66.9685C49.303 66.7372 49.4002 66.4882 49.3154 66.2553L49.2946 65.5807C49.2313 65.3695 49.3169 65.1451 49.2398 64.9346C48.8713 64.775 48.6038 64.5268 48.5228 64.1151C48.4843 63.9133 48.4843 63.7062 48.5228 63.5044C48.5264 63.4093 48.5552 63.3169 48.6061 63.2364C48.657 63.156 48.7283 63.0905 48.8127 63.0465C49.0108 62.927 49.0609 62.7805 48.9846 62.5746C48.9229 62.4459 48.9985 62.2979 48.926 62.1714L48.9083 61.8807C48.8497 61.7481 48.9152 61.5978 48.8512 61.466L48.8297 61.109C48.7711 60.9795 48.842 60.8314 48.7726 60.7027L48.7541 60.4159C48.6909 60.2879 48.768 60.1399 48.6947 60.0134C48.6446 59.6904 48.6246 59.3581 48.5367 59.0451C48.4488 58.732 48.172 58.7606 47.9145 58.8138C47.79 58.8454 47.6596 58.8454 47.5352 58.8138C47.3748 58.5385 47.5305 58.2286 47.4419 57.9456C47.3987 57.8146 47.3979 57.6989 47.5591 57.648C47.815 57.6704 48.0579 57.5964 48.3054 57.5517C48.4341 57.4892 48.5829 57.5632 48.7109 57.4931L49.0771 57.4707C49.2082 57.4175 49.3562 57.4823 49.4858 57.4167C50.0509 57.4291 50.6022 57.3065 51.1588 57.2394C51.2906 57.1862 51.4379 57.251 51.5682 57.1854C52.185 57.1986 52.1542 57.2024 52.2436 57.82C52.2983 58.2008 52.2274 58.3882 51.8157 58.426C51.4487 58.4599 51.2914 58.6573 51.4302 59.052C51.5135 59.2833 51.5142 59.5508 51.552 59.8014C51.6114 59.9302 51.5389 60.0782 51.6098 60.2054L51.6314 60.5724C51.6862 60.7035 51.6191 60.8507 51.6862 60.9795L51.707 61.3434C51.7902 61.4266 51.6299 61.6086 51.8303 61.6448C52.2929 61.2246 52.7555 60.8052 53.3006 60.5015C53.5697 60.3519 53.8179 60.1985 53.8295 59.8577C53.8372 59.6333 53.9768 59.4336 53.9359 59.2039C53.9891 58.882 53.9891 58.5536 53.9359 58.2317C53.9297 58.2209 53.9228 58.2001 53.9182 58.2001C53.3584 58.2656 53.3014 57.8986 53.3014 57.483C53.2829 57.3288 53.2243 57.1708 53.3415 57.0289C54.1379 57.0189 54.9205 56.8693 55.7084 56.7768C55.9397 56.7105 56.1872 56.8054 56.4193 56.7213C56.7038 56.7483 56.9736 56.6581 57.2504 56.6234C57.4046 56.5987 57.5588 56.5602 57.7076 56.6504C57.7046 56.6619 57.7043 56.6739 57.7067 56.6855C57.7091 56.6972 57.7141 56.7081 57.7215 56.7175C57.7612 56.969 57.7622 57.2251 57.7245 57.4769Z" fill="#2BA84A"/>
<path d="M27.0909 69.0471C27.0909 68.3532 27.2867 67.694 27.4379 67.0279C27.5281 66.6323 27.7848 66.3093 27.9922 65.967C28.8542 64.5484 29.7107 63.1259 30.4694 61.6495C30.6829 61.2331 30.7731 60.7867 30.8186 60.3257C30.8387 60.119 30.8857 59.9402 31.1679 59.9402C31.356 59.9402 31.5449 59.8854 31.7338 59.8546C31.9874 59.8172 32.245 59.8172 32.4986 59.8546C33.2889 60.0697 34.0652 60.3172 34.6288 60.9633C35.0519 61.456 35.3998 62.0086 35.6612 62.6032C35.9588 63.267 35.507 64.2168 34.8224 64.4358C34.6682 64.4867 34.507 64.5352 34.349 64.5846C34.0955 64.6262 33.8369 64.6262 33.5834 64.5846C33.11 64.0935 33.0036 63.4281 32.7461 62.8306C32.5622 62.3736 32.2754 61.9652 31.908 61.6371C31.7137 62.2192 31.5426 62.7805 31.3383 63.3333C30.9713 64.3148 30.5858 65.2893 30.2119 66.2715C30.1402 66.4604 30.0669 66.657 30.1055 66.8667C30.0237 67.0456 30.1139 67.2422 30.0476 67.4226C30.0476 67.7071 30.0476 67.9916 30.0476 68.2761C30.1093 68.4303 30.0245 68.5999 30.1055 68.7502C30.1386 69.7348 30.5179 70.6075 31.0029 71.4371C31.3232 71.9765 31.7099 72.4735 32.154 72.9166C32.3421 73.1079 32.4662 73.1418 32.7245 73.0022C33.3282 72.6761 33.8432 72.259 34.0483 71.6052C34.2156 71.0709 34.4114 70.5027 33.982 69.946C33.6381 69.5012 33.7592 68.8119 34.4831 68.6808C35.2695 68.5374 36.076 68.4696 36.8053 68.0941C37.0189 67.9839 36.9665 68.1851 36.9827 68.2645C37.1237 68.9584 37.0497 69.6454 36.857 70.3123C36.3458 72.0855 35.2464 73.4116 33.6875 74.38C33.3714 74.5766 33.0275 74.6984 32.7006 74.8634C32.1517 75.1394 31.6212 74.9844 31.1016 74.7709C29.6105 74.1602 28.3985 73.2089 27.6059 71.7925C27.2744 71.1848 27.097 70.5049 27.0894 69.8127C27.0517 69.5588 27.0522 69.3008 27.0909 69.0471Z" fill="#2BA84A"/>
<path d="M37.9626 67.1968C37.9464 66.2646 38.2363 65.3896 38.5555 64.5423C38.7451 64.038 39.1345 63.6047 39.4506 63.1545C40.3064 61.9271 41.1252 60.6765 41.8638 59.3766C42.0148 59.1057 42.1105 58.8075 42.1452 58.4993C42.1968 58.0513 42.3665 57.8162 42.8352 57.8578C43.1149 57.8204 43.3982 57.8204 43.6779 57.8578C44.9685 58.1107 45.9538 58.773 46.5136 59.9942C46.7156 60.4329 47.0301 60.8199 46.9299 61.3743C46.7811 62.1985 46.2869 62.6788 45.4373 62.7181C44.7133 62.752 44.4227 62.5007 44.2376 61.7467C44.0487 60.9757 43.8074 60.2278 43.2014 59.6041C43.0472 60.015 42.9162 60.4159 42.7489 60.8007C42.2701 61.9047 41.7759 63.0018 41.2886 64.102C41.1115 64.4816 41.0302 64.8988 41.0519 65.3171C40.9748 65.5253 41.0627 65.7488 40.9956 65.9578C40.9956 66.0881 40.9956 66.2184 40.9956 66.3487C41.0589 66.5322 40.9756 66.7303 41.0512 66.913C41.1082 68.2391 41.6864 69.3563 42.4474 70.4002C42.4852 70.4519 42.5245 70.502 42.5685 70.5506C43.1852 71.2606 42.9948 71.303 43.8514 70.7664C44.5267 70.3424 44.9693 69.7534 44.9986 68.9161C45.0402 68.6848 45.0649 68.4535 44.9901 68.2222C44.4342 67.6432 44.6193 66.9955 45.3956 66.8059C45.5429 66.7696 45.6932 66.7442 45.842 66.7141C46.024 66.6509 46.2206 66.7365 46.4018 66.6586C46.9284 66.6586 47.4041 66.4612 47.879 66.2731C48.0424 66.6748 47.9391 67.0896 47.933 67.499C47.3617 70.3802 45.6246 72.1773 42.829 72.9907C42.7047 73.0277 42.572 73.0255 42.4489 72.9846C41.678 72.7718 41.001 72.3739 40.3673 71.9129C39.4252 71.233 38.6895 70.3058 38.2417 69.2337C38.0503 68.7562 37.9552 68.2455 37.9618 67.7311C37.9239 67.5549 37.9242 67.3728 37.9626 67.1968Z" fill="#2BA84A"/>
<path d="M74.3516 61.3373C74.4341 60.1769 74.8859 59.1245 75.3022 58.0598C75.8026 56.7769 76.8565 56.1323 78.0477 55.6381C78.4054 55.4901 78.7924 55.4916 79.1756 55.4839C79.2843 55.4839 79.3946 55.4893 79.4316 55.6027C79.6028 56.1177 80.0484 56.406 80.3946 56.7723C80.8841 57.2888 81.4739 57.719 81.7931 58.3844C82.1971 59.2178 81.891 59.8392 80.9782 60.015C80.8803 60.0343 80.7847 60.0875 80.6883 60.0883C80.457 60.0883 80.1918 60.1422 80.0114 60.0435C79.7901 59.921 80.0114 59.6102 79.9019 59.4013C79.8379 59.224 79.9304 59.0297 79.8441 58.8539C79.5272 58.1292 78.7924 57.8385 78.2612 57.3358C78.1626 57.2426 78.0546 57.3667 77.9744 57.4492C77.4085 58.0305 77.2035 58.7444 77.2119 59.5308C77.1591 59.9568 77.1591 60.3877 77.2119 60.8138C77.2058 61.0127 77.1264 61.2833 77.289 61.3797C77.4517 61.476 77.6391 61.2586 77.8094 61.163C78.2397 60.9217 78.6683 60.8307 79.1725 60.9919C79.7002 61.1731 80.2003 61.426 80.659 61.7436C80.9674 61.9471 81.1285 62.2786 81.2187 62.6271C81.4123 63.3765 81.3614 63.4482 80.6073 63.6171C80.4585 63.6502 80.3074 63.6787 80.1555 63.6942C79.8472 63.7327 79.5542 63.782 79.4285 63.358C79.3676 63.1529 79.1826 62.9818 79.043 62.8029C78.8264 62.5246 78.6167 62.4683 78.2389 62.6248C77.6129 62.8846 77.3839 63.2377 77.5751 63.8915C77.6337 64.0928 77.5913 64.3233 77.5951 64.5407C77.5265 64.6694 77.5951 64.8159 77.5404 64.9462C77.3183 66.2569 76.902 67.4905 76.1403 68.5976C76.2544 68.6832 76.3531 68.6447 76.4487 68.6354C76.582 68.5814 76.7301 68.6447 76.8619 68.5814C78.0292 68.5421 79.3954 67.6007 79.7508 66.509C79.888 66.0881 80.1 65.9239 80.5117 65.873C81.0946 65.8013 81.6721 65.6871 82.2588 65.6417C82.4739 65.6239 82.5263 65.6964 82.5433 65.9146C82.6204 66.8968 82.2094 67.5861 81.4015 68.1304C80.0715 69.0263 78.6174 69.5752 77.0562 69.8767C76.9555 69.89 76.854 69.8967 76.7524 69.8967C76.5982 69.9607 76.424 69.8782 76.2698 69.9546H75.0879C74.8265 69.8728 74.552 69.9692 74.2899 69.899H74.2082C73.9445 69.97 73.6685 69.8736 73.4079 69.9561C73.2892 69.9245 73.2923 69.8196 73.2715 69.7294C73.2333 69.5274 73.2333 69.3201 73.2715 69.118C73.2514 68.8567 73.3401 68.7325 73.6346 68.7325C74.4973 68.748 74.8073 68.1158 74.9098 67.4635C74.9591 67.1497 75.0601 66.819 74.9676 66.489C74.9052 66.3649 74.9877 66.2176 74.9067 66.0965C74.7317 65.2276 74.505 64.3688 74.4287 63.4821C74.367 63.3557 74.4441 63.2077 74.3693 63.0828L74.3485 62.7112C74.313 62.2538 74.314 61.7944 74.3516 61.3373Z" fill="#2BA84A"/>
<path d="M90.6194 68.7387C90.6263 68.6408 90.6325 68.5421 90.6394 68.4442C90.7165 68.3193 90.6356 68.1713 90.6996 68.0448C90.7065 67.9508 90.7127 67.8575 90.7196 67.7642C90.7836 67.6324 90.7196 67.4836 90.7751 67.351L90.796 66.3001C90.873 66.0642 90.7828 65.8144 90.853 65.5777L90.873 65.0658C90.944 64.9116 90.8684 64.7342 90.9293 64.5754L90.9501 64.1398C91.0149 64.0087 90.9501 63.8607 91.0049 63.7273L91.028 63.2933C91.0912 63.1614 91.028 63.0126 91.0828 62.8792L91.1051 62.4475C91.1676 62.3141 91.1051 62.1653 91.1591 62.0311L91.1799 61.5855C91.257 61.4067 91.1722 61.21 91.2362 61.0289C91.2439 60.8068 91.2508 60.584 91.2585 60.362C91.3287 59.8516 91.2709 59.3389 91.2909 58.8277C91.2963 58.6874 91.2686 58.5455 91.3148 58.4075C91.412 58.039 91.0558 58.1593 90.9293 58.1076C90.6533 57.9943 90.3364 57.9758 90.035 57.9264C89.7806 57.8848 89.6433 57.9696 89.7189 58.2533C89.759 58.7132 89.759 59.1758 89.7189 59.6357L89.6287 59.9441C89.5063 59.9972 89.3681 60.0008 89.2432 59.9541C88.9456 59.9109 88.6534 59.8593 88.5547 59.5093C88.6073 59.3471 88.6054 59.1722 88.5493 59.0112C88.3142 58.4561 87.9325 57.9557 87.9148 57.3189C87.8616 57.1886 87.9279 57.0421 87.86 56.9133C87.9132 56.2341 87.9132 56.2349 88.6395 56.2588C88.7266 56.2588 88.8145 56.2534 88.9024 56.2511C89.0859 56.3282 89.2879 56.2434 89.4691 56.3066L89.9802 56.3282C90.1129 56.3914 90.2609 56.3282 90.3943 56.3821C90.8985 56.4423 91.3965 56.5803 91.9069 56.5602C92.0395 56.6234 92.1891 56.5602 92.3225 56.6157L92.8383 56.6358C93.1243 56.7206 93.4227 56.6211 93.7095 56.6921L94.8398 56.7137C94.994 56.7838 95.1697 56.7136 95.3286 56.7676L95.7649 56.7908C95.896 56.8563 96.0448 56.7908 96.1774 56.8478L96.539 56.8671C96.6932 56.9403 96.8682 56.8609 97.0255 56.9249L98.2313 57.0953C98.4241 57.1223 98.4726 57.1724 98.4518 57.416C98.3855 58.1963 98.0008 58.7375 97.3832 59.1723C97.0339 59.415 96.7763 59.768 96.6516 60.1746C96.5359 60.5601 96.2599 60.3496 96.0517 60.3866C95.8127 60.4298 95.7788 60.2324 95.7534 60.0782C95.6716 59.5617 95.7665 59.0513 95.8467 58.5432C95.8733 58.4466 95.8733 58.3445 95.8467 58.2479C95.3571 58.16 94.8637 58.2294 94.3718 58.2094C94.2307 58.2032 94.2176 58.2965 94.2106 58.4098C94.2045 58.6118 94.2384 58.8154 94.189 59.0158L94.1675 59.9179C94.0857 60.1492 94.1798 60.3997 94.1112 60.6349C94.1042 60.8307 94.0973 61.0273 94.0896 61.2232C94.0202 61.3812 94.0934 61.5547 94.0349 61.7143L94.0133 62.1522C93.9477 62.2825 94.0133 62.4305 93.9577 62.5624C93.9022 62.89 93.8344 63.2162 93.8614 63.5515C93.7843 63.6757 93.8652 63.8245 93.8005 63.9509C93.7943 64.0442 93.7881 64.1375 93.7812 64.2315C93.7172 64.3626 93.7812 64.5114 93.7257 64.644L93.7049 65.2338C93.6332 66.0357 93.6771 66.8382 93.6771 67.6401C93.6771 68.2623 93.6255 68.8868 93.711 69.5074C93.8691 69.6616 94.0703 69.5961 94.2507 69.593C94.482 69.5891 94.6077 69.6701 94.6524 69.8921C94.6994 70.199 94.6958 70.5116 94.6416 70.8173L94.2068 70.8073C94.0757 70.7433 93.9285 70.8073 93.7958 70.7533L93.3541 70.731C93.0688 70.6461 92.7712 70.7464 92.4844 70.6747L91.9732 70.6531C91.8414 70.5899 91.6934 70.6531 91.56 70.5991L91.1205 70.5768C90.991 70.5105 90.843 70.5768 90.7119 70.522L90.3418 70.5012C90.2154 70.4287 90.0689 70.5012 89.9409 70.4457C89.8908 70.438 89.8415 70.428 89.7914 70.4233C89.3496 70.3832 89.3049 70.3709 89.4167 69.9561C89.4799 69.7248 89.3642 69.381 89.7096 69.2584C89.9671 69.1921 90.2354 69.2869 90.4914 69.2013C90.5377 69.2013 90.5616 69.1782 90.5585 69.1312C90.6394 69.0109 90.56 68.8636 90.6194 68.7387Z" fill="#2BA84A"/>
<path d="M24.5721 69.8897C24.5451 70.0771 24.522 70.2652 24.4904 70.451C24.4719 70.5612 24.4796 70.6368 24.6022 70.69C24.973 70.8488 25.1635 71.1765 25.3392 71.5142C25.379 71.6638 25.3804 71.8211 25.3431 71.9714C25.2537 72.2312 25.1696 72.4941 24.8805 72.6922C25.0933 72.7454 25.2352 72.7878 25.3786 72.8156C26.3438 73.0037 26.9837 73.703 26.9915 74.6983C26.9984 75.5634 26.5828 76.3282 25.542 76.6736C25.421 76.7145 25.2937 76.7361 25.1696 76.7669C24.9938 76.8051 24.8119 76.8051 24.6361 76.7669C23.3439 76.6381 22.6485 75.6312 22.805 74.3861C22.8707 73.9521 23.0965 73.5585 23.438 73.2828C23.5922 73.1571 23.6693 73.0947 23.4241 72.9174C22.8628 72.5157 22.7217 72.0269 22.9661 71.3469C23.0563 71.0963 22.9553 70.9938 22.7857 70.8843C22.1258 70.4541 21.4427 70.0586 20.9161 69.4503C19.7935 68.1558 18.5808 66.9399 17.5353 65.5792C17.2809 65.2492 16.9702 65.2523 16.6379 65.3617C16.459 65.4211 16.4367 65.3617 16.3842 65.2114C16.0928 64.3487 16.0805 64.334 16.9239 64.0757C17.8584 63.7912 18.8213 63.6062 19.7419 63.2724C19.8413 63.2369 19.9655 63.132 20.0156 63.3703C20.1559 64.0441 20.5876 64.5483 21.0433 65.0348C21.7542 65.7919 22.4581 66.5552 23.1681 67.3123C23.2344 67.3833 23.2907 67.5074 23.4033 67.4873C23.5459 67.4604 23.4711 67.3223 23.4912 67.2321C23.7225 66.1805 23.9599 65.1297 24.192 64.0773C24.5004 62.6741 25.387 61.7813 26.6808 61.2354C26.8465 61.1653 26.8627 61.2524 26.8851 61.3449C26.9205 61.4929 26.9336 61.6471 26.956 61.799C27.0115 62.792 26.9652 63.7858 26.9791 64.7796C26.9791 64.9038 26.9722 65.0233 26.791 64.9708C26.6217 64.9308 26.4503 64.9007 26.2775 64.8806C25.8226 64.7989 25.6284 65.1775 25.4479 65.4843C25.0578 66.1481 24.916 66.8991 24.7864 67.6477C24.7348 67.9468 24.6669 68.2475 24.6993 68.5559C24.6315 68.6854 24.6993 68.8335 24.643 68.9638L24.6214 69.3986C24.5598 69.5574 24.633 69.7309 24.5721 69.8897Z" fill="#2BA84A"/>
<path d="M138.325 65.8066C139.838 66.1751 141.255 66.7888 142.71 67.2661C142.854 67.3131 142.941 67.3733 142.843 67.5383C142.826 67.5863 142.815 67.6359 142.808 67.6863C142.577 68.3802 142.572 68.4064 141.883 68.1743C141.61 68.0818 141.645 68.2637 141.598 68.374C140.651 70.6198 139.825 72.9144 139.122 75.2481C138.761 76.437 138.36 77.6135 137.976 78.7947C137.91 78.9975 137.911 79.1648 138.158 79.2365C138.205 79.2554 138.251 79.2768 138.296 79.3005C138.886 79.5379 138.978 79.9566 138.542 80.4515C138.46 80.5441 138.376 80.5764 138.224 80.5225C137.05 80.1023 135.869 79.7037 134.69 79.2966C134.291 79.1586 134.277 79.11 134.489 78.7446C134.553 78.6351 134.637 78.5233 134.654 78.4046C134.692 78.1278 134.829 78.0962 135.052 78.1956C135.276 78.2951 135.394 78.1879 135.482 77.9782C135.822 77.1856 136.046 76.3591 136.299 75.535C136.826 73.8241 137.4 72.1272 137.942 70.4202C138.25 69.4488 138.539 68.4719 138.824 67.4904C138.868 67.3363 138.844 67.1913 138.629 67.105C138.07 66.8737 138.053 66.8366 138.225 66.2445C138.267 66.1042 138.293 65.9577 138.325 65.8066Z" fill="#2BA84A"/>
<path d="M91.0311 81.8879C91.0242 81.6666 91.0164 81.4445 91.0095 81.2233C90.9432 81.0143 91.0334 80.7915 90.9532 80.5841V80.0275L90.8661 80.0028C90.3588 80.9457 89.8523 81.8879 89.291 82.9325C88.8484 81.9303 88.4429 81.0012 88.0073 80.0159C87.7906 80.3875 87.8115 80.7615 87.7136 81.0953C87.6156 81.4291 87.5686 81.763 87.4884 82.0976C87.426 82.3589 87.4884 82.5995 87.5848 82.8377C87.4005 82.7606 87.1993 82.8462 87.0166 82.7814L86.4175 82.7213C87.0343 82.5023 87.0675 82.0143 87.1739 81.5795C87.3281 80.9457 87.4491 80.3035 87.6133 79.6721C87.6481 79.5703 87.6542 79.4608 87.6311 79.3558C87.608 79.2507 87.5565 79.154 87.4823 79.0761H88.2178C88.372 79.1601 88.5616 79.0376 88.705 79.1686C88.5131 79.2457 88.5185 79.3945 88.584 79.5456C88.8693 80.2064 89.1615 80.864 89.4814 81.591C89.8977 80.874 90.3295 80.2542 90.6664 79.5718C90.7343 79.4362 90.6256 79.4385 90.6225 79.3737C90.6842 79.1817 90.826 79.2773 90.9432 79.2843C91.2046 79.3274 91.4783 79.2843 91.7381 79.4123C91.6132 79.5587 91.6093 79.7353 91.654 79.9188C91.708 80.0522 91.6448 80.2002 91.7088 80.332L91.7319 80.7669C91.7851 80.8995 91.7211 81.0475 91.7859 81.1778L91.809 81.6149C91.863 81.7468 91.7974 81.894 91.8638 82.0243C91.8776 82.3928 91.7959 82.7776 92.1614 83.062C92.2631 83.1391 92.0758 83.0991 92.048 83.1476C91.8676 83.0705 91.671 83.1546 91.4891 83.0921L90.7381 83.015C90.8661 82.914 90.9956 82.8978 91.0249 82.7706C91.0833 82.4795 91.0854 82.1798 91.0311 81.8879Z" fill="#2BA84A"/>
<path d="M76.5365 100.729C76.1595 101.721 75.6985 102.039 74.8265 102.039C74.1326 102.039 73.4758 101.351 73.4226 100.729C73.3875 100.553 73.3875 100.372 73.4226 100.196C73.5205 99.4687 74.0948 98.973 74.8103 98.8966C75.4865 98.8257 76.2042 99.2721 76.4371 99.9089C76.471 100.004 76.5018 100.1 76.5342 100.196C76.5705 100.371 76.5712 100.553 76.5365 100.729Z" fill="#2BA84A"/>
<path d="M70.2021 30.1601C70.1943 30.5754 70.0235 30.971 69.7267 31.2616C69.4299 31.5522 69.0308 31.7145 68.6155 31.7137C67.7574 31.7021 67.045 30.9681 67.0612 30.1216C67.0712 29.7061 67.2438 29.3112 67.5417 29.0215C67.8396 28.7318 68.2392 28.5704 68.6548 28.5719C69.0698 28.5798 69.4649 28.751 69.7546 29.0483C70.0443 29.3456 70.2051 29.7451 70.2021 30.1601Z" fill="#2BA84A"/>
<path d="M78.1695 78.7662L78.6067 78.7585C78.6892 79.3945 78.6198 80.0345 78.6452 80.6721C78.656 80.9388 78.6028 81.2117 78.6791 81.4723C78.72 81.992 79.0099 82.1601 79.4717 81.948C80.0885 81.6659 80.3753 81.1817 80.3915 80.5209C80.3984 80.2395 80.3915 79.9574 80.3915 79.6729C80.3876 79.3429 80.3082 79.0522 79.9682 78.9065C80.0384 78.7986 80.1494 78.8641 80.2281 78.8209C80.3823 78.7585 80.5588 78.8371 80.7138 78.7639L81.1509 78.7554C81.2342 79.3675 81.1648 79.9828 81.1887 80.5965C81.2064 81.0437 81.1471 81.4924 81.2219 81.938C81.1756 82.214 81.346 82.3474 81.5626 82.5032C81.416 82.4947 81.269 82.4947 81.1224 82.5032C80.7038 82.5517 80.3876 82.4985 80.3846 81.9596C80.3846 81.7183 80.2404 81.8709 80.1587 81.9319C79.7616 82.2287 79.3723 82.524 78.848 82.5841C78.3515 82.6412 77.8519 82.2187 77.8565 81.7137C77.8619 81.0969 77.8488 80.4801 77.8642 79.8702C77.8742 79.4847 77.8249 79.1316 77.4325 78.8741L77.6823 78.8186C77.8403 78.7608 78.0145 78.8394 78.1695 78.7662Z" fill="#2BA84A"/>
<path d="M60.1277 79.2288C60.6627 79.2249 60.662 79.2288 60.7977 79.7916C60.8215 79.8614 60.8509 79.9292 60.8856 79.9944C60.9303 80.0853 60.921 80.1486 60.8046 80.1694C60.5602 79.8988 60.2819 79.6921 59.8987 79.6775C59.7038 79.6266 59.4991 79.6266 59.3043 79.6775C58.8478 79.7145 58.7268 79.8348 58.7268 80.2264C58.7916 80.4107 58.7075 80.6119 58.7831 80.7923C58.7892 80.9635 58.7959 81.1347 58.8031 81.3058C58.8679 81.4909 58.7854 81.6913 58.8594 81.8748C58.8687 82.3058 58.7445 82.7823 59.359 83.0383L58.9419 83.0907C58.7592 83.1539 58.5618 83.0691 58.3798 83.1462H57.5857C58.0784 82.9758 58.0599 82.6304 58.0838 82.3027C58.0198 82.1177 58.1015 81.9172 58.0275 81.7337C58.0208 81.5379 58.0134 81.3421 58.0052 81.1462C57.9419 80.9643 58.0275 80.7669 57.9496 80.5865C57.9404 80.1563 57.8833 79.7484 57.4454 79.5202C57.5742 79.3059 57.8086 79.4886 57.9666 79.383L58.4847 79.3621C58.6682 79.2981 58.8656 79.383 59.0475 79.3059L59.5641 79.285C59.7491 79.2211 59.9465 79.3059 60.1277 79.2288Z" fill="#2BA84A"/>
<path d="M41.7373 36.0767C41.735 35.9515 41.7576 35.8272 41.804 35.711C41.8504 35.5947 41.9195 35.4889 42.0074 35.3998C42.0952 35.3106 42.2 35.24 42.3156 35.1919C42.4311 35.1438 42.5551 35.1193 42.6803 35.1199C42.8055 35.1182 42.9298 35.1417 43.0458 35.1888C43.1618 35.2359 43.2673 35.3058 43.3559 35.3943C43.4445 35.4829 43.5144 35.5882 43.5617 35.7042C43.6089 35.8202 43.6324 35.9445 43.6309 36.0697C43.6321 36.3217 43.5342 36.5641 43.3582 36.7445C43.1821 36.9248 42.9422 37.0286 42.6903 37.0335C42.4372 37.0325 42.1948 36.9312 42.0162 36.7519C41.8376 36.5726 41.7373 36.3298 41.7373 36.0767Z" fill="#2BA84A"/>
<path d="M89.0474 34.7406C88.8837 34.7403 88.7217 34.707 88.5711 34.6427C88.4206 34.5783 88.2846 34.4843 88.1712 34.3662C88.0578 34.2481 87.9695 34.1083 87.9114 33.9553C87.8533 33.8022 87.8266 33.639 87.8331 33.4754C87.8363 33.1522 87.9674 32.8434 88.1977 32.6166C88.428 32.3897 88.7388 32.2633 89.062 32.265C89.3921 32.2658 89.7084 32.3972 89.9418 32.6305C90.1753 32.8638 90.3069 33.1801 90.3079 33.5101C90.3063 33.6738 90.2724 33.8355 90.2081 33.986C90.1438 34.1366 90.0504 34.2729 89.9333 34.3872C89.8162 34.5016 89.6776 34.5916 89.5256 34.6523C89.3735 34.7129 89.211 34.7429 89.0474 34.7406Z" fill="#2BA84A"/>
<path d="M105.596 33.9957C105.596 34.2485 105.496 34.491 105.319 34.671C105.141 34.851 104.9 34.9541 104.648 34.9579C104.394 34.9528 104.153 34.8504 103.974 34.6719C103.794 34.4934 103.69 34.2526 103.684 33.9996C103.687 33.7466 103.79 33.505 103.968 33.3262C104.147 33.1473 104.389 33.0454 104.642 33.042C104.895 33.0424 105.137 33.143 105.316 33.3218C105.495 33.5006 105.595 33.7429 105.596 33.9957Z" fill="#2BA84A"/>
<path d="M83.8771 16.6963C84.1301 16.6936 84.374 16.7905 84.5562 16.966C84.7384 17.1416 84.8442 17.3817 84.8509 17.6346C84.8535 17.8877 84.7569 18.1317 84.5818 18.3144C84.4067 18.4971 84.1671 18.604 83.9142 18.6123C83.6612 18.6113 83.4183 18.5128 83.2361 18.3373C83.0538 18.1619 82.9463 17.9229 82.9358 17.6701C82.9348 17.4171 83.0327 17.1738 83.2086 16.9919C83.3844 16.81 83.6243 16.704 83.8771 16.6963Z" fill="#2BA84A"/>
<path d="M116.515 72.8219C116.807 72.5135 116.756 72.0964 116.84 71.7341C117.082 70.6847 117.384 69.6524 117.617 68.6008C118.032 66.7288 118.619 64.9054 119.077 63.0497C119.151 62.6974 119.204 62.3411 119.237 61.9826C119.262 61.7814 119.127 61.7058 118.955 61.6403C118.229 61.362 118.237 61.3581 118.481 60.6072C118.558 60.3759 118.679 60.2787 118.915 60.3412C120.556 60.7706 122.247 60.9973 123.854 61.5748C124.67 61.867 125.068 62.4799 125.319 63.2424C125.252 63.3719 125.319 63.5207 125.262 63.6518C125.087 64.4174 124.92 65.1845 124.728 65.947C124.645 66.2793 124.474 66.4143 124.183 66.4914C123.668 66.6271 123.155 66.7666 122.641 66.9138C122.533 66.9547 122.43 67.0064 122.332 67.068C122.048 67.2222 122.058 67.3356 122.324 67.5368C122.798 67.8945 123.334 68.1204 123.866 68.3602C123.953 68.3913 124.029 68.4468 124.085 68.5201C124.141 68.5935 124.174 68.6815 124.181 68.7735C124.373 69.8922 124.441 71.0271 124.625 72.1458C124.714 72.6854 124.796 73.2251 124.882 73.7648C124.991 74.4448 124.85 75.0809 124.531 75.68C124.391 75.9444 124.211 76.0045 123.877 75.9251C122.852 75.6823 121.824 75.4564 120.804 75.1919C120.033 74.993 119.275 74.7671 118.504 74.5859C117.551 74.3623 116.592 74.175 115.636 73.9691C115.423 73.9237 115.182 73.8843 115.386 73.5667C115.417 73.4989 115.432 73.4247 115.43 73.35C115.457 72.8998 115.697 72.7417 116.124 72.8366C116.26 72.8666 116.389 72.8982 116.515 72.8219ZM119.705 73.3894C119.693 73.5343 119.746 73.5991 119.892 73.6129C120.63 73.6823 121.357 73.8751 122.111 73.7818C122.347 73.7533 122.39 73.6654 122.409 73.4495C122.519 72.2375 122.356 71.0402 122.241 69.839C122.239 69.7816 122.225 69.7253 122.2 69.6737C122.175 69.6221 122.139 69.5762 122.096 69.5391C121.496 69.0321 120.924 68.4929 120.383 67.9238C120.043 69.7889 119.859 71.5883 119.705 73.3894ZM122.712 65.1313C122.767 65.0799 122.804 65.0111 122.816 64.9363C122.94 64.4135 123.065 63.89 123.099 63.3511C123.106 63.2255 123.129 63.0944 123.001 63.0019C122.763 62.8299 122.532 62.6457 122.288 62.4815C122.045 62.3172 121.877 62.3357 121.781 62.6804C121.446 63.8954 121.082 65.1028 120.702 66.4096C121.425 65.9509 122.071 65.5484 122.712 65.1313Z" fill="#2BA84A"/>
<path d="M114.006 67.9624C113.918 68.6986 113.751 69.4272 113.752 70.1736C113.687 70.3038 113.752 70.4519 113.697 70.5837C113.691 70.7318 113.684 70.8798 113.677 71.0278C113.62 71.4446 113.622 71.8675 113.683 72.2837C113.828 72.4773 114.068 72.431 114.262 72.4935C114.441 72.552 114.548 72.6276 114.601 72.7972C114.532 72.926 114.606 73.0763 114.542 73.2058C114.356 73.7278 114.244 73.7502 113.47 73.5682C112.732 73.398 111.984 73.2742 111.231 73.1974C110.861 73.158 110.501 73.0378 110.135 72.9591C110.031 72.9368 109.963 72.9013 110.005 72.7826C110.09 72.5389 110.171 72.2938 110.268 72.0548C110.304 71.9646 110.367 71.8736 110.499 71.9006C111.014 71.9954 111 71.6446 110.997 71.3054C111.074 71.1512 110.991 70.9785 111.054 70.8227C111.061 70.6493 111.067 70.4765 111.074 70.3031C111.131 69.7648 111.129 69.2218 111.067 68.684C110.616 68.6316 110.239 68.8791 109.834 69.0017C108.755 69.3293 108.006 70.1234 107.255 70.9021C107.082 71.081 106.947 71.3 107.395 71.2961C107.521 71.3074 107.646 71.3346 107.765 71.3771C107.937 71.4218 108.014 71.5174 107.97 71.707C107.917 71.9283 107.881 72.1542 107.847 72.3801C107.82 72.5628 107.714 72.6114 107.551 72.576C106.533 72.3632 105.508 72.1943 104.479 72.0432C104.164 71.9969 103.863 71.8805 103.543 71.8366C103.319 71.8057 103.271 71.6824 103.298 71.5097C103.338 71.2664 103.394 71.0259 103.464 70.7896C103.508 70.6354 103.648 70.6631 103.755 70.7001C104.526 70.9661 104.964 70.5321 105.435 69.9955C106.088 69.2522 106.697 68.4535 107.509 67.8621C107.574 67.8151 107.663 67.7627 107.663 67.6571C107.624 67.4034 107.624 67.1451 107.663 66.8915C107.802 65.2508 108.748 64.1113 109.956 63.1059C110.566 62.5971 111.205 62.1098 111.724 61.4969C111.851 61.3503 111.94 61.1747 111.983 60.9855C112.027 60.7964 112.023 60.5995 111.973 60.4121C111.791 60.335 111.606 60.3674 111.421 60.4028C111.19 60.6441 111.135 60.961 111.068 61.2679C110.914 61.9618 110.492 62.3742 109.815 62.5439C109.501 62.621 108.952 62.1692 108.917 61.806C108.852 61.1229 109.019 60.8161 109.633 60.5354C109.83 60.446 109.771 60.3627 109.697 60.2139C109.532 59.884 109.33 59.5655 109.583 59.1577C109.643 59.0566 109.724 58.97 109.822 58.9043C109.919 58.8386 110.03 58.7953 110.146 58.7776C110.27 58.7441 110.401 58.7441 110.525 58.7776C111.643 59.0783 112.794 59.1947 113.927 59.4106C114.635 59.5447 115.343 59.6758 116.053 59.8084C115.976 60.1168 115.907 60.3982 115.843 60.6796C115.784 60.9371 115.627 60.9842 115.393 60.9163C114.872 60.7667 114.869 60.7698 114.74 61.2748C114.621 61.7428 114.515 62.2123 114.53 62.6996C114.462 62.8291 114.53 62.9772 114.473 63.1075L114.452 63.4652C114.382 63.6194 114.458 63.7975 114.396 63.9555L114.376 64.395C114.303 64.5492 114.38 64.7234 114.32 64.8807C114.313 65.0272 114.306 65.1729 114.299 65.3194C114.232 65.4489 114.299 65.597 114.243 65.7288C114.236 65.8267 114.23 65.9239 114.223 66.0218C114.146 66.1475 114.223 66.2955 114.165 66.4227L114.144 66.7797C114.08 66.9115 114.144 67.0603 114.088 67.1937C114.081 67.3155 114.075 67.4381 114.068 67.5599C113.996 67.6856 114.065 67.8321 114.006 67.9624ZM110.229 65.388C110.047 65.7842 109.938 66.21 109.908 66.6447C109.882 66.9878 109.961 67.1891 110.363 67.1197C110.602 67.078 110.845 67.0703 111.087 67.0426C111.266 67.0248 111.348 66.9285 111.374 66.745C111.428 66.3656 111.518 65.9917 111.572 65.6116C111.684 64.8206 111.928 64.0457 111.9 63.1591C111.172 63.8399 110.614 64.5507 110.229 65.388Z" fill="#2BA84A"/>
<path d="M134.515 74.9783C134.509 75.2035 134.502 75.4281 134.495 75.6522C134.418 75.8064 134.495 75.9783 134.439 76.1348C134.357 76.6236 134.265 77.1109 134.194 77.5997C134.112 78.1671 133.682 78.4555 133.283 78.7685C133.184 78.8456 133.07 78.7577 132.975 78.7245C131.097 78.0615 129.203 77.4501 127.287 76.9058C126.773 76.7601 126.267 76.5897 125.753 76.4432C125.476 76.3661 125.327 76.2612 125.49 75.9498C125.523 75.8846 125.551 75.8171 125.574 75.7478C125.757 75.1865 125.767 75.1634 126.312 75.3761C126.663 75.5126 126.782 75.39 126.883 75.0762C127.36 73.5944 127.866 72.1218 128.335 70.6377C128.693 69.5074 129.095 68.3941 129.469 67.27C129.751 66.422 129.927 65.5438 130.123 64.6726C130.192 64.3704 129.994 64.2516 129.772 64.21C129.395 64.1329 129.394 63.9294 129.498 63.6364C129.739 62.9579 129.742 62.9425 130.423 63.1838C131.604 63.6086 132.806 63.9602 134.005 64.3249C134.23 64.3935 134.278 64.459 134.149 64.6495C134.116 64.7033 134.088 64.7601 134.065 64.8191C133.791 65.4451 133.786 65.4621 133.123 65.294C132.93 65.2454 132.879 65.3464 132.83 65.4444C132.353 66.3983 131.937 67.3818 131.585 68.3887C131.503 68.62 131.585 68.674 131.83 68.6146C132.498 68.455 133.141 68.5052 133.747 68.8768C134.143 69.1196 134.32 69.4619 134.261 69.9037C134.238 70.1212 134.153 70.3275 134.016 70.4984C133.88 70.6692 133.697 70.7975 133.49 70.8682C133.441 70.8838 133.392 70.8962 133.341 70.9052C133.217 70.9442 133.084 70.9442 132.96 70.9052C132.602 70.8613 132.386 70.6308 132.224 70.3339C132.171 70.236 132.147 70.0857 131.998 70.1327C131.945 70.1549 131.899 70.1903 131.864 70.2355C131.829 70.2808 131.806 70.3343 131.797 70.391C131.666 70.9307 131.862 71.3886 132.366 71.6855C132.829 71.9576 133.338 72.0995 133.859 72.2174C134.462 72.3547 134.46 72.3655 134.512 72.9761C134.553 73.6428 134.554 74.3115 134.515 74.9783ZM132.475 73.7208C132.475 73.5952 132.506 73.4687 132.358 73.3878C131.777 73.0701 131.313 72.6045 130.833 72.1611C130.678 72.017 130.587 72.0016 130.524 72.2383C130.201 73.5042 129.891 74.7732 129.658 76.06C129.63 76.2142 129.665 76.299 129.827 76.3353C130.576 76.5041 131.313 76.7354 132.097 76.6876C132.27 76.6768 132.337 76.6328 132.363 76.4563C132.44 75.9328 132.416 75.4062 132.472 74.8812C132.475 74.4918 132.475 74.1063 132.475 73.7208Z" fill="#2BA84A"/>
<path d="M14.3041 65.4111C15.5493 65.8537 16.1198 66.7989 16.3148 68.051C16.4875 69.1597 16.301 70.2352 16.0835 71.3138C16.0744 71.4021 16.036 71.4848 15.9746 71.5489C15.9132 71.613 15.8321 71.6548 15.7443 71.6677C15.1877 71.8075 14.6338 71.9591 14.0828 72.1226C13.2509 72.3716 13.0736 72.5705 13.4946 73.6645C13.5948 73.4725 13.6781 73.2868 13.7837 73.1148C13.8741 72.9574 14.0111 72.832 14.1759 72.7559C14.3407 72.6798 14.525 72.6568 14.7035 72.69C15.1345 72.7548 15.4421 73.0416 15.6032 73.4463C15.742 73.7941 15.6657 74.104 15.4035 74.3954C14.9039 74.9498 14.2471 75.1001 13.5262 75.1525C13.8686 76.1437 14.2899 77.1059 14.786 78.0298C14.8877 78.2218 15.0458 78.2912 15.2671 78.1663C15.5184 78.0244 15.6757 78.0892 15.8068 78.3791C16.1491 79.1323 16.1653 79.1177 15.3542 79.3814C14.3149 79.7191 13.3126 80.1616 12.2625 80.4754C11.9264 80.5764 11.7128 80.5918 11.6211 80.1979C11.5941 80.0814 11.5131 79.9781 11.4669 79.8648C11.3751 79.6458 11.406 79.4963 11.6542 79.3783C12.2494 79.093 12.2571 79.0591 12.076 78.4392C11.7429 77.3028 11.2942 76.2095 10.8462 75.1132C10.3836 73.9868 9.99352 72.8311 9.56331 71.6916C9.17782 70.6824 8.8463 69.6577 8.51786 68.6308C8.42842 68.3501 8.24107 68.2823 7.95118 68.3833C7.40686 68.5745 7.3953 68.5637 7.22954 68.0294C7.17017 67.839 6.95815 67.6324 7.0684 67.4697C7.164 67.3294 7.41843 67.2854 7.60809 67.2237C9.50394 66.6069 11.3566 65.8591 13.3049 65.4104C13.4591 65.3441 13.6387 65.4235 13.7968 65.3518H13.887C14.0204 65.4173 14.1723 65.3479 14.3041 65.4111ZM13.4021 70.8134C13.9695 70.6353 14.2393 70.2938 14.2871 69.6932C14.3465 68.9577 14.4375 68.2329 13.9595 67.5907C13.8384 67.428 13.7166 67.2577 13.4707 67.2692C12.7421 67.3055 12.0127 67.3324 11.2842 67.3694C11.0991 67.3795 10.9904 67.4296 11.0436 67.6778C11.3273 69.007 11.81 70.2691 12.3026 71.6014C12.5747 71.2272 12.9603 70.9508 13.4021 70.8134Z" fill="#2BA84A"/>
<path d="M103.739 65.1798C103.91 65.2436 104.063 65.3495 104.183 65.4879C104.303 65.6263 104.387 65.7926 104.426 65.9716C104.602 66.6493 104.253 67.1041 103.429 67.2822C103.202 67.3216 102.969 67.3216 102.741 67.2822C102.641 67.2735 102.541 67.2575 102.443 67.2344C101.8 67.0355 101.801 67.0332 101.806 67.704C101.729 67.8867 101.813 68.0856 101.749 68.2699C101.736 68.7903 101.709 69.3099 101.715 69.8303C101.722 70.4995 101.733 70.4995 102.405 70.5134C102.547 70.8573 102.446 71.215 102.458 71.5658C102.463 71.7378 102.318 71.7085 102.201 71.6768L101.911 71.6583C101.784 71.5874 101.637 71.6583 101.508 71.6021L100.534 71.5026C100.402 71.4386 100.252 71.5026 100.12 71.4455L99.8265 71.4278C99.7009 71.3507 99.5536 71.4278 99.4256 71.3692C98.972 71.3326 98.5208 71.2708 98.0741 71.1842C97.9661 71.1665 97.9638 71.1117 97.943 71.0446C97.906 70.8168 97.9076 70.5843 97.9476 70.3569C97.9924 70.1958 97.96 70.0107 98.2321 69.9868C98.9206 69.9259 98.953 69.9175 99.0895 69.2421C99.2182 68.5999 99.2676 67.9414 99.3524 67.2907C99.4295 67.1365 99.3478 66.9654 99.4087 66.8104C99.4164 66.6377 99.4233 66.4642 99.4303 66.2915C99.5074 66.1103 99.4233 65.9137 99.485 65.731C99.4927 65.5583 99.5002 65.3856 99.5074 65.2129C99.5752 65.0842 99.5074 64.9369 99.5621 64.8066C99.5698 64.6581 99.577 64.5098 99.5837 64.3618C99.6608 64.2076 99.5783 64.0356 99.6415 63.8807L99.6623 63.5175C99.7302 63.388 99.6623 63.24 99.7186 63.1097C99.8011 62.2986 99.8605 61.4844 99.9738 60.678C100.051 60.099 100.093 59.5053 100.227 58.9433C100.332 58.4977 100.058 58.5316 99.8512 58.4807C99.2383 58.335 99.337 58.3458 99.3269 57.7359C99.3146 57.0066 99.7895 57.3219 100.093 57.2533C100.222 57.3211 100.369 57.2533 100.5 57.308C102.07 57.6095 103.666 57.7298 105.241 58.0065C106.562 58.2378 107.486 58.8361 107.684 60.2555C107.724 60.5606 107.724 60.8694 107.684 61.1745C107.407 62.4489 106.726 63.5152 105.957 64.5375C105.749 64.8143 105.52 64.9184 105.145 64.8189C104.559 64.6647 103.952 64.5807 103.35 64.4928C102.748 64.4049 102.433 64.859 102.525 65.6532C102.774 65.472 102.957 65.2044 103.278 65.1744C103.429 65.1347 103.588 65.1366 103.739 65.1798ZM103.614 63.0441C104.312 63.1798 104.7 62.8483 105.031 62.2994C105.361 61.7504 105.669 61.1892 105.596 60.5061C105.562 60.1915 105.456 59.9471 105.139 59.8168C104.511 59.5608 103.889 59.291 103.266 59.0219C103.068 58.9363 102.968 58.988 102.917 59.2008C102.601 60.5115 102.455 61.8453 102.323 63.2716C102.77 63.0418 103.2 62.966 103.614 63.0441Z" fill="#2BA84A"/>
<path d="M73.3647 82.4738C72.8397 82.3813 72.3039 82.5069 71.7765 82.3743C71.4294 82.2923 71.1155 82.1063 70.8768 81.8413C70.6381 81.5762 70.4859 81.2447 70.4404 80.8909C70.2384 79.5032 71.2114 78.6551 72.4943 78.6088C72.7834 78.5988 73.0733 78.679 73.3601 78.5965C73.4246 78.3925 73.4283 78.1742 73.3709 77.9681C73.411 77.6536 73.1157 77.6358 72.9314 77.4763C73.2938 77.3382 73.667 77.3359 74.0255 77.2681C74.1912 77.2373 74.1866 77.3899 74.1866 77.5063C74.1866 77.7877 74.2005 78.0699 74.1828 78.3498C74.1673 78.588 74.2398 78.6582 74.485 78.6327C75.1311 78.5556 75.754 78.6366 76.3207 78.9905C76.8103 79.2989 77.0238 79.7753 77.1541 80.3073C77.1924 80.4573 77.1924 80.6145 77.1541 80.7645C76.973 81.9981 76.0825 82.4429 74.9638 82.4491C74.1535 82.4537 74.1465 82.4545 74.1928 83.2694C74.2097 83.5393 74.1218 83.8916 74.5644 83.934C74.596 83.9926 74.5744 84.0358 74.5127 84.0373C74.027 84.0466 73.541 84.0466 73.0548 84.0373C72.9931 84.0373 72.9723 83.9926 73.0085 83.9348C73.1082 83.908 73.1967 83.8501 73.2611 83.7695C73.3256 83.689 73.3627 83.59 73.3671 83.4869C73.4242 83.1515 73.4234 82.8089 73.3647 82.4738ZM73.4095 80.3389V79.6851C73.4095 78.9072 73.4095 78.9072 72.6146 78.9912C71.8197 79.0753 71.2977 79.6512 71.2707 80.4561C71.2407 81.3813 71.6871 81.985 72.5043 82.1276C73.0278 82.2193 73.3871 81.9403 73.4048 81.4121C73.4172 81.0529 73.4048 80.6936 73.4048 80.3328L73.4095 80.3389ZM75.5189 79.1539C75.1927 78.9774 74.8296 78.9828 74.4688 78.9781C74.256 78.9781 74.1789 79.0452 74.1828 79.2657C74.1943 79.9704 74.1828 80.6751 74.1882 81.3805C74.192 81.9665 74.5736 82.2548 75.1534 82.113C75.9051 81.9279 76.3215 81.3905 76.3099 80.5378C76.3539 79.9658 76.0948 79.4662 75.5189 79.1539Z" fill="#2BA84A"/>
<path d="M86.3281 81.224C86.0575 82.2911 85.2896 82.6735 84.2503 82.6681C83.9642 82.6681 83.6705 82.7398 83.3876 82.6303C83.2935 82.7675 83.3922 82.9325 83.3236 83.0736C83.3359 83.4691 83.1362 83.9217 83.7175 84.2247H82.4153C82.3382 84.1168 82.1177 84.3165 82.0938 84.0821C82.198 84.0616 82.2919 84.0058 82.3599 83.9243C82.4278 83.8427 82.4656 83.7403 82.467 83.6341C82.5518 83.3766 82.4562 83.106 82.5248 82.8477C82.5315 82.4715 82.5387 82.095 82.5464 81.7182C82.632 81.3528 82.5287 80.9781 82.6027 80.6119L82.6374 79.7368C82.6505 79.3752 82.6543 79.0182 82.2103 78.8432H83.1285C83.4932 78.9296 83.8671 78.8278 84.2318 78.8987C84.507 78.9442 84.7861 78.9758 85.0567 79.0367C85.7707 79.2048 86.1222 79.7252 86.3265 80.3798C86.3698 80.6595 86.3704 80.9442 86.3281 81.224ZM83.3906 80.6442C83.3737 80.9773 83.3513 81.3096 83.3413 81.6465C83.3282 82.079 83.4793 82.2517 83.9064 82.315C84.608 82.4198 85.1801 82.0837 85.4206 81.4183C85.8231 80.3019 85.2325 79.1138 83.5949 79.2202C83.4215 79.231 83.4207 79.3451 83.4192 79.4569C83.4138 79.854 83.4192 80.251 83.4192 80.6481L83.3906 80.6442Z" fill="#2BA84A"/>
<path d="M62.0073 84.4577H61.3844C61.5 84.2888 61.7113 84.2341 61.7306 84.0313C61.7807 83.756 61.7807 83.4739 61.7306 83.1986L61.7097 82.4569C61.638 82.1971 61.7375 81.9249 61.6527 81.6659L61.6326 80.992C61.5609 80.7314 61.6604 80.4585 61.5756 80.1987C61.5848 79.7962 61.5802 79.4007 61.1176 79.2188C61.1847 78.9874 61.4044 79.1802 61.5178 79.0746L62.2656 79.053C62.5015 78.9867 62.749 79.0784 62.9842 78.9975C63.3419 79.0029 63.702 79.0083 64.0497 79.0923C64.8076 79.2758 65.1777 79.8248 65.3604 80.5356C65.3967 80.8154 65.3957 81.0988 65.3573 81.3783C65.0489 82.3644 64.2926 82.7175 63.3388 82.7823C63.1407 82.8316 62.9395 82.7992 62.7398 82.8039C62.5856 82.8039 62.4884 82.8447 62.5625 83.0251C62.5625 83.2295 62.5709 83.4338 62.5679 83.6419C62.5625 83.9665 62.6635 84.2271 63.0304 84.3605L62.7991 84.4037C62.5386 84.4723 62.2664 84.3721 62.0073 84.4577ZM62.3882 80.6513C62.4175 81.0871 62.446 81.5222 62.4738 81.9566C62.49 82.2102 62.6218 82.349 62.8701 82.403C63.4098 82.5209 63.867 82.3852 64.2209 81.9681C64.6565 81.4554 64.6904 80.5803 64.3219 80.019C63.9749 79.4932 63.0806 79.1918 62.4607 79.376C62.3111 79.4207 62.3373 79.5179 62.3412 79.6135C62.3551 79.9597 62.3759 80.3074 62.3936 80.6513H62.3882Z" fill="#2BA84A"/>
<path d="M93.0866 80.5348C93.1259 80.2658 93.1637 79.9951 93.2084 79.6914C93.6039 79.881 93.9601 79.6436 94.3371 79.5942C94.6425 79.5518 94.9523 79.5518 95.2577 79.5942C96.1397 79.9072 96.267 80.0568 96.26 80.7407C96.26 80.8671 96.26 80.9936 96.26 81.1208C96.1868 81.275 96.2662 81.45 96.2029 81.6065L96.1844 81.9751C96.1073 82.1293 96.1891 82.2997 96.1274 82.4546C96.0865 82.8733 96.0125 83.3027 96.6224 83.5294H95.9848C95.8306 83.4523 95.6548 83.5379 95.499 83.47C95.3718 83.0213 95.1768 82.9218 94.7442 83.2079C94.3633 83.4608 93.8745 83.4284 93.4335 83.3459C92.9308 83.2518 92.5268 82.8286 92.5854 82.4299C92.6133 82.197 92.7051 81.9763 92.8505 81.7922C92.996 81.6081 93.1894 81.4678 93.4096 81.3868C93.8977 81.194 94.4158 81.1154 94.9277 81.0121C95.1251 80.972 95.425 81.0352 95.4327 80.7037C95.4404 80.3544 95.2415 80.1493 94.9084 80.0591C94.1868 79.8648 93.6286 80.1123 93.186 80.6836C93.0357 80.7029 93.0657 80.6158 93.0866 80.5348ZM94.7943 82.8185C95.2708 82.4685 95.307 81.9265 95.3834 81.4076C95.4042 81.2665 95.2754 81.2904 95.1929 81.2997C94.6602 81.3567 94.1575 81.4986 93.755 81.8748C93.5499 82.066 93.4081 82.2958 93.5322 82.5949C93.5797 82.7098 93.6591 82.8087 93.761 82.8799C93.8629 82.9511 93.9831 82.9916 94.1074 82.9966C94.4304 83.0059 94.6255 82.9419 94.7943 82.8185Z" fill="#2BA84A"/>
<path d="M54.5257 83.5316C54.3151 83.535 54.1058 83.4984 53.9089 83.4237C53.3546 83.1924 53.205 82.4214 53.6198 81.965C54.0346 81.5086 54.5712 81.2511 55.1486 81.066C55.2458 81.0344 55.3437 81.0028 55.4393 80.9658C55.6051 80.9018 55.8857 80.9311 55.8695 80.6882C55.8533 80.4454 55.814 80.1547 55.4971 80.0637C55.2558 80.0109 55.006 80.0109 54.7647 80.0637C54.1965 80.1408 53.8588 80.5263 53.5566 81.076C53.5566 80.6906 53.5566 80.4045 53.5566 80.1162C53.5566 80.0691 53.5111 79.9759 53.6182 79.9774C54.1402 79.9866 54.5558 79.6405 55.0615 79.5634C56.0638 79.4092 56.474 79.6405 56.723 80.6135C56.787 80.7677 56.706 80.9427 56.78 81.0976L56.8024 81.5386C56.8548 81.6728 56.7931 81.8208 56.8564 81.9527C56.8648 82.1693 56.8448 82.3913 56.8903 82.5995C56.9497 82.8694 57.0985 83.0906 57.43 83.103C57.3244 83.2849 57.1447 83.1855 57.016 83.2441C56.8618 83.3081 56.6844 83.2287 56.5287 83.3019C56.4668 83.2877 56.4094 83.2585 56.3615 83.2168C56.3136 83.1751 56.2768 83.1222 56.2542 83.0629C56.1771 82.8316 56.0692 82.7545 55.8603 82.9773C55.6128 83.2418 55.2828 83.3836 54.9351 83.4754C54.804 83.5332 54.6552 83.4638 54.5257 83.5316ZM55.9512 81.3143C55.9512 81.1663 55.8896 81.1508 55.76 81.1925C55.2535 81.3551 54.7786 81.5695 54.4432 82.0035C54.2628 82.2348 54.151 82.5031 54.3453 82.7799C54.5396 83.0567 54.8402 83.1192 55.1648 83.0282C55.7045 82.874 55.9466 82.4715 55.9512 81.6975C55.9512 81.5695 55.9458 81.4415 55.9512 81.3143Z" fill="#2BA84A"/>
<path d="M67.9917 78.6891C68.2608 78.7662 68.5438 78.7477 68.8159 78.8286C69.5869 79.0599 70.0102 79.5849 70.112 80.359C70.2214 81.1855 69.9138 81.8655 69.1945 82.2803C68.3572 82.7645 67.4821 82.7806 66.6595 82.2147C66.2385 81.9256 65.9872 81.5209 65.9771 80.9812C65.9718 80.652 65.9633 80.3266 66.065 80.0051C66.3033 79.2573 66.8561 78.8996 67.5839 78.7477C67.7134 78.6852 67.863 78.7585 67.9917 78.6891ZM69.0264 79.7083C68.7997 79.2881 68.4435 79.0568 67.9617 79.0915C67.4798 79.1262 67.1028 79.3644 66.9463 79.8425C66.7273 80.5117 66.7921 81.167 67.1822 81.7568C67.2677 81.8896 67.3817 82.0018 67.5159 82.0852C67.6501 82.1685 67.8012 82.2209 67.9582 82.2387C68.1152 82.2564 68.2742 82.2389 68.4236 82.1876C68.573 82.1362 68.7091 82.0523 68.8221 81.9418C69.1621 81.6188 69.2485 81.1955 69.2708 80.7345C69.2515 80.386 69.2006 80.0306 69.0264 79.7083Z" fill="#2BA84A"/>
<path d="M113.905 41.6841C113.308 41.6872 112.721 41.5273 112.209 41.2215C111.695 40.918 111.269 40.4857 110.974 39.9675C110.679 39.4492 110.523 38.8628 110.524 38.2663C110.524 37.8123 110.616 37.363 110.792 36.9448C110.959 36.5366 111.206 36.1659 111.518 35.8546C111.829 35.5476 112.195 35.3018 112.597 35.1299C113.007 34.9532 113.449 34.8614 113.895 34.8601C114.341 34.8587 114.784 34.9479 115.195 35.1222C115.598 35.293 115.964 35.5416 116.272 35.8539C116.905 36.4975 117.259 37.3649 117.256 38.2678C117.259 38.72 117.172 39.1682 117.002 39.587C116.836 39.9956 116.591 40.3674 116.281 40.681C115.969 40.9972 115.599 41.2489 115.19 41.4219C114.784 41.5978 114.347 41.6871 113.905 41.6841ZM113.905 41.2014C114.4 41.2027 114.886 41.0663 115.308 40.8074C115.743 40.5462 116.101 40.1753 116.348 39.7319C116.603 39.286 116.736 38.7807 116.733 38.267C116.736 37.7564 116.606 37.2538 116.355 36.8091C116.109 36.3669 115.751 35.9971 115.317 35.7367C114.946 35.5098 114.526 35.3756 114.092 35.3454C113.658 35.3152 113.223 35.3899 112.824 35.5632C112.476 35.7125 112.162 35.9292 111.899 36.2008C111.631 36.4751 111.418 36.798 111.272 37.1522C111.101 37.5642 111.026 38.0099 111.054 38.4552C111.083 38.9005 111.213 39.3333 111.434 39.7204C111.618 40.0537 111.866 40.3472 112.164 40.5837C112.462 40.8202 112.804 40.9951 113.17 41.0981C113.409 41.1666 113.656 41.2014 113.905 41.2014ZM113.147 38.3164V40.1059L113.013 40.0781H112.902L112.657 40.1059V36.4313H113.852C114.684 36.4313 115.1 36.705 115.1 37.2524C115.103 37.3831 115.074 37.5126 115.016 37.6298C114.959 37.7471 114.873 37.8485 114.767 37.9255C114.525 38.1047 114.242 38.2229 113.944 38.2701L115.1 39.6695L115.372 39.9655L115.477 40.1059L115.301 40.0781H115.009L114.838 40.0966L114.488 39.6309L113.818 38.8152L113.369 38.3187L113.147 38.3164ZM113.147 36.722V38.0242H113.764C113.984 38.0346 114.201 37.9657 114.376 37.8299C114.451 37.7679 114.511 37.6893 114.551 37.6002C114.592 37.5112 114.611 37.414 114.607 37.3164C114.607 36.9191 114.394 36.7204 113.969 36.7204L113.147 36.722Z" fill="#2BA84A"/>
</svg>
